<svg width="64" height="64" viewBox="0 0 64 64" fill="none" xmlns="http://www.w3.org/2000/svg">
<mask id="path-1-inside-1_512_251" fill="white">
<path d="M48.7722 6.61249C50.1333 6.68383 51.5107 7.47875 54.2643 9.06855L58.1979 11.34C60.951 12.9295 62.3276 13.7246 63.07 14.8674C63.723 15.8729 64.0409 17.0597 63.9782 18.257C63.9069 19.6182 63.112 20.9956 61.5222 23.7492L55.6384 33.9396C54.0486 36.6932 53.2541 38.0703 52.111 38.8127C51.1055 39.4657 49.9187 39.7836 48.7214 39.7209C48.0087 39.6835 47.2923 39.4465 46.3757 39.0021C48.1995 37.3128 48.2016 34.1507 45.8991 32.5676L43.2311 30.7336C43.9459 29.9913 44.3863 28.9832 44.3864 27.8713V8.41718C44.708 8.04278 45.029 7.75092 45.3835 7.5207C46.3888 6.86791 47.5751 6.54985 48.7722 6.61249ZM52.7145 16.4162C52.6051 16.4197 52.5017 16.4662 52.4284 16.5451L52.0798 16.9191C51.6046 17.4316 50.9885 17.7973 50.3034 17.9719C49.6182 18.1464 48.8918 18.1234 48.2106 17.9055L47.7116 17.7463C47.6214 17.7173 47.5247 17.7194 47.4372 17.7521C47.3498 17.7849 47.2764 17.846 47.2302 17.926C47.184 18.0061 47.167 18.1004 47.1823 18.1926C47.1977 18.2847 47.2449 18.3702 47.3151 18.4338L47.7028 18.7844C48.232 19.265 48.6156 19.8814 48.8073 20.5617C48.9989 21.2418 48.9913 21.9577 48.7858 22.6252L48.6345 23.1154C48.6078 23.2036 48.6129 23.2993 48.6481 23.3859C48.6834 23.4724 48.7471 23.5458 48.8288 23.593C48.9105 23.6401 49.0058 23.6584 49.0983 23.6457C49.1909 23.6329 49.2755 23.5888 49.3386 23.5217L49.6872 23.1477C50.1624 22.635 50.7793 22.2696 51.4645 22.0949C52.1499 21.9203 52.8761 21.9433 53.5573 22.1613L54.0554 22.3225C54.1455 22.3517 54.2431 22.3492 54.3307 22.3166C54.4182 22.2839 54.4915 22.2227 54.5378 22.1428C54.5842 22.0624 54.6012 21.9676 54.5856 21.8752C54.57 21.7828 54.5225 21.6975 54.4518 21.634L54.0641 21.2824C53.5347 20.8017 53.1514 20.1847 52.9597 19.5041C52.768 18.8237 52.7753 18.1074 52.9811 17.4396L53.1335 16.9504C53.1562 16.8766 53.1566 16.7971 53.1354 16.7219C53.1143 16.6467 53.0718 16.5787 53.0134 16.5256V16.5266C52.9317 16.4526 52.824 16.4128 52.7145 16.4162ZM56.3874 17.2131C56.1321 17.0869 55.9327 17.7296 55.3454 17.8967C54.7591 18.0676 54.2984 17.6058 54.153 17.8576C54.0087 18.1091 54.5634 18.2978 54.778 18.8928C54.9925 19.4871 54.5445 19.9263 54.8141 20.0656C55.0855 20.2062 55.3061 19.6629 55.8239 19.51C56.34 19.359 56.9323 19.7596 57.0681 19.4934C57.2025 19.2259 56.538 19.0082 56.3649 18.4289C56.1929 17.8507 56.6404 17.3411 56.3874 17.2141V17.2131Z"/>
</mask>
<path d="M48.7722 6.61249C50.1333 6.68383 51.5107 7.47875 54.2643 9.06855L58.1979 11.34C60.951 12.9295 62.3276 13.7246 63.07 14.8674C63.723 15.8729 64.0409 17.0597 63.9782 18.257C63.9069 19.6182 63.112 20.9956 61.5222 23.7492L55.6384 33.9396C54.0486 36.6932 53.2541 38.0703 52.111 38.8127C51.1055 39.4657 49.9187 39.7836 48.7214 39.7209C48.0087 39.6835 47.2923 39.4465 46.3757 39.0021C48.1995 37.3128 48.2016 34.1507 45.8991 32.5676L43.2311 30.7336C43.9459 29.9913 44.3863 28.9832 44.3864 27.8713V8.41718C44.708 8.04278 45.029 7.75092 45.3835 7.5207C46.3888 6.86791 47.5751 6.54985 48.7722 6.61249ZM52.7145 16.4162C52.6051 16.4197 52.5017 16.4662 52.4284 16.5451L52.0798 16.9191C51.6046 17.4316 50.9885 17.7973 50.3034 17.9719C49.6182 18.1464 48.8918 18.1234 48.2106 17.9055L47.7116 17.7463C47.6214 17.7173 47.5247 17.7194 47.4372 17.7521C47.3498 17.7849 47.2764 17.846 47.2302 17.926C47.184 18.0061 47.167 18.1004 47.1823 18.1926C47.1977 18.2847 47.2449 18.3702 47.3151 18.4338L47.7028 18.7844C48.232 19.265 48.6156 19.8814 48.8073 20.5617C48.9989 21.2418 48.9913 21.9577 48.7858 22.6252L48.6345 23.1154C48.6078 23.2036 48.6129 23.2993 48.6481 23.3859C48.6834 23.4724 48.7471 23.5458 48.8288 23.593C48.9105 23.6401 49.0058 23.6584 49.0983 23.6457C49.1909 23.6329 49.2755 23.5888 49.3386 23.5217L49.6872 23.1477C50.1624 22.635 50.7793 22.2696 51.4645 22.0949C52.1499 21.9203 52.8761 21.9433 53.5573 22.1613L54.0554 22.3225C54.1455 22.3517 54.2431 22.3492 54.3307 22.3166C54.4182 22.2839 54.4915 22.2227 54.5378 22.1428C54.5842 22.0624 54.6012 21.9676 54.5856 21.8752C54.57 21.7828 54.5225 21.6975 54.4518 21.634L54.0641 21.2824C53.5347 20.8017 53.1514 20.1847 52.9597 19.5041C52.768 18.8237 52.7753 18.1074 52.9811 17.4396L53.1335 16.9504C53.1562 16.8766 53.1566 16.7971 53.1354 16.7219C53.1143 16.6467 53.0718 16.5787 53.0134 16.5256V16.5266C52.9317 16.4526 52.824 16.4128 52.7145 16.4162ZM56.3874 17.2131C56.1321 17.0869 55.9327 17.7296 55.3454 17.8967C54.7591 18.0676 54.2984 17.6058 54.153 17.8576C54.0087 18.1091 54.5634 18.2978 54.778 18.8928C54.9925 19.4871 54.5445 19.9263 54.8141 20.0656C55.0855 20.2062 55.3061 19.6629 55.8239 19.51C56.34 19.359 56.9323 19.7596 57.0681 19.4934C57.2025 19.2259 56.538 19.0082 56.3649 18.4289C56.1929 17.8507 56.6404 17.3411 56.3874 17.2141V17.2131Z" fill="url(#paint0_linear_512_251)"/>
<path d="M48.7722 6.61249L48.7857 6.35478L48.7856 6.35478L48.7722 6.61249ZM54.2643 9.06855L54.3934 8.84507L54.3934 8.84506L54.2643 9.06855ZM58.1979 11.34L58.0689 11.5635L58.0689 11.5635L58.1979 11.34ZM63.07 14.8674L63.2864 14.7268L63.2864 14.7268L63.07 14.8674ZM63.9782 18.257L64.2359 18.2705V18.2705L63.9782 18.257ZM61.5222 23.7492L61.7456 23.8783L61.7456 23.8782L61.5222 23.7492ZM55.6384 33.9396L55.4149 33.8106L55.4149 33.8106L55.6384 33.9396ZM52.111 38.8127L52.2516 39.0291L52.2516 39.0291L52.111 38.8127ZM48.7214 39.7209L48.7079 39.9786H48.7079L48.7214 39.7209ZM46.3757 39.0021L46.2003 38.8128C46.1378 38.8708 46.1079 38.9558 46.1204 39.0402C46.133 39.1245 46.1864 39.1972 46.2631 39.2344L46.3757 39.0021ZM45.8991 32.5676L46.0453 32.3549L46.0453 32.3549L45.8991 32.5676ZM43.2311 30.7336L43.0452 30.5546C42.9927 30.6092 42.9667 30.6842 42.9744 30.7596C42.982 30.835 43.0225 30.9033 43.085 30.9463L43.2311 30.7336ZM44.3864 27.8713L44.6445 27.8713V27.8713H44.3864ZM44.3864 8.41718L44.1907 8.24902C44.1505 8.29582 44.1283 8.35548 44.1283 8.41718H44.3864ZM45.3835 7.5207L45.2429 7.30426L45.2429 7.30427L45.3835 7.5207ZM52.7145 16.4162L52.7066 16.1583L52.7063 16.1583L52.7145 16.4162ZM52.4284 16.5451L52.6172 16.7211L52.6174 16.7208L52.4284 16.5451ZM52.0798 16.9191L51.891 16.7432L51.8905 16.7437L52.0798 16.9191ZM50.3034 17.9719L50.3671 18.2219L50.3671 18.2219L50.3034 17.9719ZM48.2106 17.9055L48.2893 17.6597L48.2891 17.6596L48.2106 17.9055ZM47.7116 17.7463L47.6327 17.992L47.6332 17.9921L47.7116 17.7463ZM47.4372 17.7521L47.3468 17.5104L47.3466 17.5105L47.4372 17.7521ZM47.2302 17.926L47.0068 17.7968L47.0066 17.7971L47.2302 17.926ZM47.1823 18.1926L46.9278 18.235L46.9278 18.2351L47.1823 18.1926ZM47.3151 18.4338L47.1418 18.625L47.142 18.6252L47.3151 18.4338ZM47.7028 18.7844L47.8763 18.5933L47.8759 18.593L47.7028 18.7844ZM48.8073 20.5617L49.0557 20.4918L49.0557 20.4917L48.8073 20.5617ZM48.7858 22.6252L49.0324 22.7013L49.0325 22.7011L48.7858 22.6252ZM48.6345 23.1154L48.3879 23.0393L48.3874 23.0408L48.6345 23.1154ZM48.6481 23.3859L48.4091 23.4831L48.4091 23.4833L48.6481 23.3859ZM48.8288 23.593L48.6997 23.8164L48.6999 23.8165L48.8288 23.593ZM49.0983 23.6457L49.1335 23.9013L49.1337 23.9013L49.0983 23.6457ZM49.3386 23.5217L49.5267 23.6983L49.5273 23.6976L49.3386 23.5217ZM49.6872 23.1476L49.876 23.3236L49.8765 23.3231L49.6872 23.1476ZM51.4645 22.0949L51.4008 21.8448L51.4008 21.8448L51.4645 22.0949ZM53.5573 22.1613L53.6368 21.9158L53.636 21.9155L53.5573 22.1613ZM54.0554 22.3225L54.1349 22.0769L54.1348 22.0769L54.0554 22.3225ZM54.3307 22.3166L54.4207 22.5585L54.4212 22.5583L54.3307 22.3166ZM54.5378 22.1428L54.7611 22.2721L54.7613 22.2718L54.5378 22.1428ZM54.5856 21.8752L54.8401 21.8324L54.8401 21.8322L54.5856 21.8752ZM54.4518 21.634L54.2785 21.8251L54.2792 21.8258L54.4518 21.634ZM54.0641 21.2824L53.8907 21.4735L53.8908 21.4736L54.0641 21.2824ZM52.9597 19.5041L52.7113 19.574L52.7113 19.5741L52.9597 19.5041ZM52.9811 17.4396L52.7347 17.3629L52.7345 17.3636L52.9811 17.4396ZM53.1335 16.9504L53.3799 17.0271L53.3801 17.0263L53.1335 16.9504ZM53.1354 16.7219L53.3839 16.652L53.3838 16.6519L53.1354 16.7219ZM53.0134 16.5256L53.1871 16.3347C53.1115 16.2659 53.0025 16.2482 52.909 16.2896C52.8156 16.3309 52.7553 16.4234 52.7553 16.5256H53.0134ZM53.0134 16.5266L52.8402 16.7179C52.9158 16.7864 53.0247 16.8038 53.118 16.7625C53.2113 16.7211 53.2714 16.6286 53.2714 16.5266H53.0134ZM56.3874 17.2131H56.6455C56.6455 17.1149 56.5897 17.0252 56.5017 16.9817L56.3874 17.2131ZM55.3454 17.8967L55.2748 17.6485L55.2732 17.6489L55.3454 17.8967ZM54.153 17.8576L53.9295 17.7286L53.9292 17.7292L54.153 17.8576ZM54.778 18.8928L54.5353 18.9803L54.5353 18.9804L54.778 18.8928ZM54.8141 20.0656L54.9328 19.8365L54.9326 19.8363L54.8141 20.0656ZM55.8239 19.51L55.7515 19.2623L55.7508 19.2625L55.8239 19.51ZM57.0681 19.4934L57.2979 19.6106L57.2986 19.6093L57.0681 19.4934ZM56.3649 18.4289L56.1176 18.5025L56.1177 18.5028L56.3649 18.4289ZM56.3874 17.2141H56.1293C56.1293 17.3117 56.1844 17.4009 56.2716 17.4447L56.3874 17.2141ZM48.7722 6.61249L48.7586 6.8702C49.3917 6.90338 50.0415 7.10484 50.8857 7.50436C51.7326 7.90517 52.7548 8.49502 54.1353 9.29204L54.2643 9.06855L54.3934 8.84506C53.0202 8.05228 51.9769 7.44977 51.1065 7.03783C50.2333 6.62461 49.5138 6.39294 48.7857 6.35478L48.7722 6.61249ZM54.2643 9.06855L54.1353 9.29203L58.0689 11.5635L58.1979 11.34L58.327 11.1166L54.3934 8.84507L54.2643 9.06855ZM58.1979 11.34L58.0689 11.5635C59.4491 12.3604 60.4708 12.9505 61.2412 13.4834C62.0091 14.0146 62.5083 14.4765 62.8536 15.008L63.07 14.8674L63.2864 14.7268C62.8893 14.1155 62.329 13.6084 61.5348 13.059C60.743 12.5113 59.6998 11.9092 58.327 11.1165L58.1979 11.34ZM63.07 14.8674L62.8536 15.0079C63.4769 15.9677 63.7804 17.1006 63.7205 18.2435L63.9782 18.257L64.2359 18.2705C64.3015 17.0188 63.9691 15.7781 63.2864 14.7268L63.07 14.8674ZM63.9782 18.257L63.7205 18.2435C63.6873 18.8765 63.4859 19.5263 63.0864 20.3705C62.6855 21.2175 62.0957 22.2397 61.2987 23.6202L61.5222 23.7492L61.7456 23.8782C62.5384 22.5051 63.141 21.4618 63.5529 20.5913C63.9661 19.7182 64.1978 18.9987 64.2359 18.2705L63.9782 18.257ZM61.5222 23.7492L61.2987 23.6202L55.4149 33.8106L55.6384 33.9396L55.8619 34.0687L61.7456 23.8783L61.5222 23.7492ZM55.6384 33.9396L55.4149 33.8106C54.6179 35.1911 54.0278 36.213 53.4949 36.9836C52.9638 37.7517 52.502 38.251 51.9705 38.5963L52.111 38.8127L52.2516 39.0291C52.8631 38.632 53.3701 38.0715 53.9194 37.2771C54.4671 36.4852 55.0691 35.4417 55.8619 34.0687L55.6384 33.9396ZM52.111 38.8127L51.9705 38.5963C51.0107 39.2196 49.8778 39.5231 48.7349 39.4632L48.7214 39.7209L48.7079 39.9786C49.9596 40.0442 51.2003 39.7118 52.2516 39.0291L52.111 38.8127ZM48.7214 39.7209L48.7349 39.4632C48.0721 39.4284 47.3919 39.208 46.4882 38.7699L46.3757 39.0021L46.2631 39.2344C47.1928 39.685 47.9453 39.9386 48.7079 39.9786L48.7214 39.7209ZM46.3757 39.0021L46.551 39.1915C48.4868 37.3984 48.4944 34.0389 46.0453 32.3549L45.8991 32.5676L45.7529 32.7802C47.9088 34.2626 47.9121 37.2272 46.2003 38.8128L46.3757 39.0021ZM45.8991 32.5676L46.0453 32.3549L43.3773 30.5209L43.2311 30.7336L43.085 30.9463L45.7529 32.7802L45.8991 32.5676ZM43.2311 30.7336L43.417 30.9126C44.1761 30.1243 44.6444 29.0528 44.6445 27.8713L44.3864 27.8713L44.1283 27.8713C44.1283 28.9136 43.7158 29.8583 43.0452 30.5546L43.2311 30.7336ZM44.3864 27.8713H44.6445V8.41718H44.3864H44.1283V27.8713H44.3864ZM44.3864 8.41718L44.5822 8.58534C44.8914 8.22535 45.1943 7.95125 45.524 7.73713L45.3835 7.5207L45.2429 7.30427C44.8636 7.55059 44.5247 7.8602 44.1907 8.24902L44.3864 8.41718ZM45.3835 7.5207L45.524 7.73714C46.4837 7.11401 47.6161 6.81041 48.7587 6.87021L48.7722 6.61249L48.7856 6.35478C47.5342 6.28928 46.294 6.62182 45.2429 7.30426L45.3835 7.5207ZM52.7145 16.4162L52.7063 16.1583C52.5294 16.164 52.3606 16.2391 52.2394 16.3694L52.4284 16.5451L52.6174 16.7208C52.6429 16.6934 52.6807 16.6755 52.7228 16.6741L52.7145 16.4162ZM52.4284 16.5451L52.2396 16.3692L51.891 16.7432L52.0798 16.9191L52.2685 17.0951L52.6172 16.7211L52.4284 16.5451ZM52.0798 16.9191L51.8905 16.7437C51.4494 17.2193 50.877 17.5594 50.2397 17.7218L50.3034 17.9719L50.3671 18.2219C51.0999 18.0352 51.7598 17.6438 52.269 17.0946L52.0798 16.9191ZM50.3034 17.9719L50.2397 17.7218C49.602 17.8842 48.9248 17.863 48.2893 17.6597L48.2106 17.9055L48.132 18.1513C48.8587 18.3838 49.6344 18.4086 50.3671 18.2219L50.3034 17.9719ZM48.2106 17.9055L48.2891 17.6596L47.79 17.5004L47.7116 17.7463L47.6332 17.9921L48.1322 18.1513L48.2106 17.9055ZM47.7116 17.7463L47.7905 17.5006C47.6458 17.4541 47.4893 17.4571 47.3468 17.5104L47.4372 17.7521L47.5276 17.9939C47.56 17.9817 47.5971 17.9805 47.6327 17.992L47.7116 17.7463ZM47.4372 17.7521L47.3466 17.5105C47.2051 17.5636 47.0839 17.6634 47.0068 17.7968L47.2302 17.926L47.4536 18.0552C47.4689 18.0286 47.4946 18.0062 47.5278 17.9938L47.4372 17.7521ZM47.2302 17.926L47.0066 17.7971C46.9303 17.9293 46.9026 18.0843 46.9278 18.235L47.1823 18.1926L47.4369 18.1501C47.4313 18.1166 47.4376 18.0828 47.4537 18.0549L47.2302 17.926ZM47.1823 18.1926L46.9278 18.2351C46.953 18.3858 47.0295 18.5233 47.1418 18.625L47.3151 18.4338L47.4884 18.2425C47.4603 18.2171 47.4425 18.1836 47.4368 18.15L47.1823 18.1926ZM47.3151 18.4338L47.142 18.6252L47.5297 18.9758L47.7028 18.7844L47.8759 18.593L47.4882 18.2424L47.3151 18.4338ZM47.7028 18.7844L47.5293 18.9754C48.0232 19.424 48.3806 19.9987 48.5589 20.6317L48.8073 20.5617L49.0557 20.4917C48.8507 19.7641 48.4407 19.1059 47.8763 18.5933L47.7028 18.7844ZM48.8073 20.5617L48.5589 20.6317C48.7372 21.2646 48.7299 21.9297 48.5392 22.5493L48.7858 22.6252L49.0325 22.7011C49.2528 21.9856 49.2606 21.2191 49.0557 20.4918L48.8073 20.5617ZM48.7858 22.6252L48.5392 22.5491L48.3879 23.0393L48.6345 23.1154L48.881 23.1916L49.0324 22.7013L48.7858 22.6252ZM48.6345 23.1154L48.3874 23.0408C48.3432 23.1872 48.3523 23.3435 48.4091 23.4831L48.6481 23.3859L48.8872 23.2887C48.8735 23.2552 48.8724 23.2201 48.8815 23.19L48.6345 23.1154ZM48.6481 23.3859L48.4091 23.4833C48.466 23.6229 48.5684 23.7406 48.6997 23.8164L48.8288 23.593L48.9579 23.3695C48.9258 23.351 48.9007 23.322 48.8871 23.2886L48.6481 23.3859ZM48.8288 23.593L48.6999 23.8165C48.8314 23.8924 48.9845 23.9219 49.1335 23.9013L49.0983 23.6457L49.0631 23.39C49.0271 23.395 48.9896 23.3878 48.9577 23.3694L48.8288 23.593ZM49.0983 23.6457L49.1337 23.9013C49.2848 23.8804 49.4233 23.8084 49.5267 23.6983L49.3386 23.5217L49.1504 23.345C49.1277 23.3692 49.097 23.3854 49.0629 23.3901L49.0983 23.6457ZM49.3386 23.5217L49.5273 23.6976L49.876 23.3236L49.6872 23.1476L49.4984 22.9717L49.1498 23.3457L49.3386 23.5217ZM49.6872 23.1476L49.8765 23.3231C50.3175 22.8473 50.8906 22.5075 51.5283 22.345L51.4645 22.0949L51.4008 21.8448C50.668 22.0316 50.0073 22.4227 49.4979 22.9722L49.6872 23.1476ZM51.4645 22.0949L51.5282 22.345C52.1661 22.1825 52.843 22.2037 53.4787 22.4071L53.5573 22.1613L53.636 21.9155C52.9091 21.683 52.1336 21.6582 51.4008 21.8448L51.4645 22.0949ZM53.5573 22.1613L53.4779 22.4069L53.9759 22.568L54.0554 22.3225L54.1348 22.0769L53.6367 21.9158L53.5573 22.1613ZM54.0554 22.3225L53.9759 22.568C54.1216 22.6152 54.2789 22.6112 54.4207 22.5585L54.3307 22.3166L54.2408 22.0747C54.2073 22.0872 54.1694 22.0881 54.1349 22.0769L54.0554 22.3225ZM54.3307 22.3166L54.4212 22.5583C54.5631 22.5052 54.6841 22.4051 54.7611 22.2721L54.5378 22.1428L54.3145 22.0134C54.2989 22.0403 54.2732 22.0626 54.2403 22.0749L54.3307 22.3166ZM54.5378 22.1428L54.7613 22.2718C54.8379 22.1391 54.8655 21.9834 54.8401 21.8324L54.5856 21.8752L54.3311 21.918C54.3368 21.9517 54.3304 21.9858 54.3143 22.0137L54.5378 22.1428ZM54.5856 21.8752L54.8401 21.8322C54.8145 21.6808 54.7372 21.5436 54.6245 21.4422L54.4518 21.634L54.2792 21.8258C54.3078 21.8515 54.3255 21.8848 54.3312 21.9181L54.5856 21.8752ZM54.4518 21.634L54.6252 21.4428L54.2375 21.0912L54.0641 21.2824L53.8908 21.4736L54.2785 21.8251L54.4518 21.634ZM54.0641 21.2824L54.2376 21.0914C53.7435 20.6428 53.3865 20.0675 53.2081 19.4341L52.9597 19.5041L52.7113 19.5741C52.9163 20.3018 53.3258 20.9606 53.8907 21.4735L54.0641 21.2824ZM52.9597 19.5041L53.2081 19.4341C53.0297 18.8009 53.0368 18.1353 53.2278 17.5156L52.9811 17.4396L52.7345 17.3636C52.5139 18.0795 52.5064 18.8465 52.7113 19.574L52.9597 19.5041ZM52.9811 17.4396L53.2275 17.5164L53.3799 17.0271L53.1335 16.9504L52.8871 16.8737L52.7347 17.3629L52.9811 17.4396ZM53.1335 16.9504L53.3801 17.0263C53.4179 16.9035 53.418 16.7734 53.3839 16.652L53.1354 16.7219L52.887 16.7917C52.8952 16.8208 52.8945 16.8496 52.8868 16.8745L53.1335 16.9504ZM53.1354 16.7219L53.3838 16.6519C53.3492 16.529 53.2803 16.4196 53.1871 16.3347L53.0134 16.5256L52.8397 16.7164C52.8633 16.7379 52.8793 16.7643 52.887 16.7918L53.1354 16.7219ZM53.0134 16.5256H52.7553V16.5266H53.0134H53.2714V16.5256H53.0134ZM53.0134 16.5266L53.1866 16.3352C53.0558 16.2169 52.8832 16.1528 52.7066 16.1583L52.7145 16.4162L52.7225 16.6741C52.7647 16.6728 52.8076 16.6884 52.8402 16.7179L53.0134 16.5266ZM56.3874 17.2131L56.5017 16.9817C56.4203 16.9415 56.3325 16.9295 56.2458 16.9457C56.1652 16.9609 56.0995 16.9978 56.0504 17.0325C55.9597 17.0967 55.8707 17.1957 55.8025 17.2686C55.6463 17.4354 55.4926 17.5865 55.2748 17.6485L55.3454 17.8967L55.416 18.1449C55.7855 18.0398 56.0251 17.786 56.1793 17.6213C56.2663 17.5283 56.3117 17.4799 56.3485 17.4538C56.3632 17.4434 56.3596 17.4495 56.341 17.453C56.3164 17.4576 56.2906 17.4531 56.2731 17.4444L56.3874 17.2131ZM55.3454 17.8967L55.2732 17.6489C55.0598 17.7111 54.864 17.662 54.6587 17.5998C54.5708 17.5732 54.4459 17.532 54.3366 17.5241C54.2762 17.5198 54.199 17.5232 54.1206 17.5567C54.037 17.5924 53.973 17.6532 53.9295 17.7286L54.153 17.8576L54.3765 17.9866C54.3694 17.999 54.3516 18.0193 54.3232 18.0314C54.3002 18.0412 54.2874 18.0381 54.2998 18.0389C54.3361 18.0415 54.3903 18.0578 54.509 18.0938C54.717 18.1568 55.0448 18.2531 55.4176 18.1444L55.3454 17.8967ZM54.153 17.8576L53.9292 17.7292C53.8884 17.8003 53.8671 17.8802 53.872 17.9649C53.8767 18.0461 53.9046 18.1148 53.9347 18.1683C53.9894 18.2656 54.0789 18.3568 54.1451 18.4255C54.2949 18.5809 54.4489 18.741 54.5353 18.9803L54.778 18.8928L55.0208 18.8052C54.8925 18.4496 54.6619 18.2179 54.5167 18.0673C54.4355 17.9831 54.4 17.9427 54.3845 17.9153C54.3796 17.9065 54.3861 17.9145 54.3873 17.9349C54.3887 17.9589 54.3815 17.9779 54.3769 17.986L54.153 17.8576ZM54.778 18.8928L54.5353 18.9804C54.6141 19.1988 54.5753 19.3903 54.5253 19.586C54.5041 19.6692 54.468 19.795 54.4668 19.9045C54.4662 19.9666 54.4755 20.0437 54.5157 20.12C54.5577 20.1996 54.6221 20.2569 54.6957 20.2949L54.8141 20.0656L54.9326 19.8363C54.9388 19.8396 54.9582 19.8526 54.9722 19.8792C54.9845 19.9025 54.9829 19.9178 54.9829 19.9098C54.9833 19.8793 54.9952 19.832 55.0254 19.7137C55.0784 19.5064 55.1564 19.1811 55.0208 18.8052L54.778 18.8928ZM54.8141 20.0656L54.6955 20.2948C54.8554 20.3776 55.0096 20.3503 55.1293 20.2903C55.2322 20.2387 55.3268 20.1544 55.3985 20.0903C55.5618 19.9445 55.7036 19.8146 55.897 19.7575L55.8239 19.51L55.7508 19.2625C55.4264 19.3583 55.199 19.5765 55.0547 19.7054C54.9727 19.7787 54.9288 19.8134 54.8979 19.8289C54.8837 19.8361 54.9086 19.8239 54.9328 19.8365L54.8141 20.0656ZM55.8239 19.51L55.8964 19.7576C56.0806 19.7037 56.2898 19.7461 56.5358 19.7975C56.6424 19.8198 56.777 19.8482 56.8959 19.845C57.0265 19.8415 57.2034 19.796 57.2979 19.6106L57.0681 19.4934L56.8382 19.3761C56.8648 19.3239 56.9167 19.3281 56.8819 19.3291C56.8355 19.3303 56.7643 19.318 56.6414 19.2923C56.4283 19.2477 56.0833 19.1652 55.7515 19.2623L55.8239 19.51ZM57.0681 19.4934L57.2986 19.6093C57.3913 19.4249 57.3261 19.2574 57.2519 19.1495C57.1863 19.0539 57.0851 18.9617 57.0083 18.8898C56.833 18.7254 56.6762 18.5694 56.6122 18.355L56.3649 18.4289L56.1177 18.5028C56.2267 18.8677 56.4888 19.1102 56.6553 19.2663C56.7495 19.3546 56.8001 19.4032 56.8266 19.4418C56.8446 19.468 56.812 19.4281 56.8375 19.3774L57.0681 19.4934ZM56.3649 18.4289L56.6123 18.3553C56.5494 18.144 56.5962 17.9376 56.6555 17.7201C56.681 17.6267 56.7187 17.4989 56.7242 17.3889C56.7271 17.3289 56.7225 17.2509 56.6871 17.1726C56.6488 17.0878 56.5838 17.0239 56.5032 16.9834L56.3874 17.2141L56.2716 17.4447C56.2542 17.4359 56.2306 17.4158 56.2169 17.3854C56.2061 17.3615 56.2094 17.3487 56.2087 17.3634C56.2067 17.4027 56.1908 17.4623 56.1575 17.5844C56.0993 17.798 56.0084 18.1356 56.1176 18.5025L56.3649 18.4289ZM56.3874 17.2141H56.6455V17.2131H56.3874H56.1293V17.2141H56.3874Z" fill="black" fill-opacity="0.1" mask="url(#path-1-inside-1_512_251)"/>
<mask id="path-3-inside-2_512_251" fill="white">
<path d="M35.0959 1.54932C36.5494 1.54932 37.6098 1.54951 38.4445 1.61768C39.2729 1.68538 39.8349 1.81726 40.3019 2.05518C41.176 2.50051 41.8869 3.21143 42.3322 4.08545C42.5701 4.55248 42.702 5.11447 42.7697 5.94287C42.8379 6.77752 42.8381 7.8371 42.8381 9.29053V22.7104C42.8381 24.1639 42.8379 25.2235 42.7697 26.0581C42.702 26.8864 42.5701 27.4485 42.3322 27.9155C42.053 28.4633 41.6688 28.946 41.2062 29.3403L40.6603 28.9653L40.8264 22.6108C40.9134 19.248 37.1857 17.242 34.4474 19.0415L34.1857 19.2271L29.5363 22.7925L21.1652 8.29346C21.1683 7.33283 21.1782 6.57371 21.2297 5.94287C21.2973 5.11462 21.4294 4.55243 21.6672 4.08545C22.1124 3.2116 22.8237 2.50054 23.6974 2.05518C24.1644 1.81728 24.7266 1.68539 25.5549 1.61768C26.3895 1.54948 27.4491 1.54932 28.9025 1.54932H35.0959ZM29.2941 7.78662C28.6159 7.78662 28.2759 7.78659 28.0168 7.91846C27.7889 8.03461 27.6037 8.22082 27.4875 8.44873C27.3555 8.7079 27.3547 9.04765 27.3547 9.72607V12.5122C27.3547 13.1907 27.3555 13.5304 27.4875 13.7896C27.6036 14.0175 27.7888 14.2036 28.0168 14.3198C28.2759 14.4517 28.6158 14.4517 29.2941 14.4517H32.9894C33.6678 14.4517 34.0076 14.4517 34.2668 14.3198C34.4947 14.2037 34.6799 14.0175 34.7961 13.7896C34.928 13.5304 34.9289 13.1906 34.9289 12.5122V12.3306L36.3234 13.1274C36.5613 13.2634 36.6809 13.3322 36.7785 13.3218C36.8636 13.3125 36.9411 13.2671 36.9914 13.1978C37.0487 13.1182 37.049 12.9811 37.049 12.7075V9.53076C37.049 9.25661 37.049 9.11906 36.9914 9.03955C36.9411 8.97029 36.8636 8.92573 36.7785 8.9165C36.6809 8.90607 36.5613 8.97394 36.3234 9.10986L34.9289 9.90576V9.72607C34.9289 9.04766 34.9281 8.7079 34.7961 8.44873C34.6799 8.2208 34.4947 8.0346 34.2668 7.91846C34.0076 7.78655 33.6678 7.78662 32.9894 7.78662H29.2941Z"/>
</mask>
<path d="M35.0959 1.54932C36.5494 1.54932 37.6098 1.54951 38.4445 1.61768C39.2729 1.68538 39.8349 1.81726 40.3019 2.05518C41.176 2.50051 41.8869 3.21143 42.3322 4.08545C42.5701 4.55248 42.702 5.11447 42.7697 5.94287C42.8379 6.77752 42.8381 7.8371 42.8381 9.29053V22.7104C42.8381 24.1639 42.8379 25.2235 42.7697 26.0581C42.702 26.8864 42.5701 27.4485 42.3322 27.9155C42.053 28.4633 41.6688 28.946 41.2062 29.3403L40.6603 28.9653L40.8264 22.6108C40.9134 19.248 37.1857 17.242 34.4474 19.0415L34.1857 19.2271L29.5363 22.7925L21.1652 8.29346C21.1683 7.33283 21.1782 6.57371 21.2297 5.94287C21.2973 5.11462 21.4294 4.55243 21.6672 4.08545C22.1124 3.2116 22.8237 2.50054 23.6974 2.05518C24.1644 1.81728 24.7266 1.68539 25.5549 1.61768C26.3895 1.54948 27.4491 1.54932 28.9025 1.54932H35.0959ZM29.2941 7.78662C28.6159 7.78662 28.2759 7.78659 28.0168 7.91846C27.7889 8.03461 27.6037 8.22082 27.4875 8.44873C27.3555 8.7079 27.3547 9.04765 27.3547 9.72607V12.5122C27.3547 13.1907 27.3555 13.5304 27.4875 13.7896C27.6036 14.0175 27.7888 14.2036 28.0168 14.3198C28.2759 14.4517 28.6158 14.4517 29.2941 14.4517H32.9894C33.6678 14.4517 34.0076 14.4517 34.2668 14.3198C34.4947 14.2037 34.6799 14.0175 34.7961 13.7896C34.928 13.5304 34.9289 13.1906 34.9289 12.5122V12.3306L36.3234 13.1274C36.5613 13.2634 36.6809 13.3322 36.7785 13.3218C36.8636 13.3125 36.9411 13.2671 36.9914 13.1978C37.0487 13.1182 37.049 12.9811 37.049 12.7075V9.53076C37.049 9.25661 37.049 9.11906 36.9914 9.03955C36.9411 8.97029 36.8636 8.92573 36.7785 8.9165C36.6809 8.90607 36.5613 8.97394 36.3234 9.10986L34.9289 9.90576V9.72607C34.9289 9.04766 34.9281 8.7079 34.7961 8.44873C34.6799 8.2208 34.4947 8.0346 34.2668 7.91846C34.0076 7.78655 33.6678 7.78662 32.9894 7.78662H29.2941Z" fill="url(#paint1_linear_512_251)"/>
<path d="M38.4445 1.61768L38.4655 1.36047L38.4655 1.36047L38.4445 1.61768ZM40.3019 2.05518L40.4191 1.82524L40.4191 1.82523L40.3019 2.05518ZM42.3322 4.08545L42.5622 3.96834L42.5622 3.96829L42.3322 4.08545ZM42.7697 5.94287L43.0269 5.92187V5.92186L42.7697 5.94287ZM42.8381 9.29053H43.0961V9.29053H42.8381ZM42.8381 22.7104H43.0961V22.7104H42.8381ZM42.7697 26.0581L43.0269 26.0791L43.0269 26.0791L42.7697 26.0581ZM42.3322 27.9155L42.5621 28.0327L42.5622 28.0327L42.3322 27.9155ZM41.2062 29.3403L41.0601 29.553C41.1563 29.6191 41.2849 29.6124 41.3737 29.5367L41.2062 29.3403ZM40.6603 28.9653L40.4024 28.9586C40.4001 29.046 40.4422 29.1286 40.5142 29.178L40.6603 28.9653ZM40.8264 22.6108L41.0843 22.6176L41.0843 22.6175L40.8264 22.6108ZM34.4474 19.0415L34.3056 18.8257L34.2982 18.831L34.4474 19.0415ZM34.1857 19.2271L34.0364 19.0164L34.0287 19.0223L34.1857 19.2271ZM29.5363 22.7925L29.3128 22.9215C29.35 22.9859 29.4131 23.0311 29.4859 23.0456C29.5588 23.0601 29.6344 23.0425 29.6934 22.9973L29.5363 22.7925ZM21.1652 8.29346L20.9072 8.29262C20.907 8.3382 20.9189 8.38301 20.9417 8.42249L21.1652 8.29346ZM21.2297 5.94287L20.9725 5.92186L20.9725 5.92187L21.2297 5.94287ZM21.6672 4.08545L21.4372 3.96829L21.4372 3.96836L21.6672 4.08545ZM23.6974 2.05518L23.5803 1.82523L23.5803 1.82526L23.6974 2.05518ZM25.5549 1.61768L25.5339 1.36047L25.5338 1.36047L25.5549 1.61768ZM28.9025 1.54932V1.29125V1.29125V1.54932ZM29.2941 7.78662V8.04469V7.78662ZM28.0168 7.91846L27.8997 7.68846L27.8996 7.68853L28.0168 7.91846ZM27.4875 8.44873L27.2576 8.33154L27.2575 8.33161L27.4875 8.44873ZM27.3547 9.72607H27.0966V9.72607H27.3547ZM27.4875 13.7896L27.2575 13.9066L27.2576 13.9067L27.4875 13.7896ZM28.0168 14.3198L27.8996 14.5497L27.8997 14.5498L28.0168 14.3198ZM29.2941 14.4517V14.1936V14.4517ZM32.9894 14.4517V14.1936V14.4517ZM34.2668 14.3198L34.3838 14.5498L34.384 14.5497L34.2668 14.3198ZM34.7961 13.7896L35.026 13.9067L35.0261 13.9066L34.7961 13.7896ZM34.9289 12.3306L35.0569 12.1065C34.9771 12.0609 34.8789 12.0612 34.7994 12.1074C34.7198 12.1535 34.6708 12.2386 34.6708 12.3306H34.9289ZM36.3234 13.1274L36.4515 12.9034V12.9034L36.3234 13.1274ZM36.7785 13.3218L36.8058 13.5784L36.8063 13.5783L36.7785 13.3218ZM36.9914 13.1978L37.2004 13.3492L37.2007 13.3487L36.9914 13.1978ZM37.049 12.7075H37.3071V12.7075H37.049ZM37.049 9.53076H37.3071H37.049ZM36.9914 9.03955L37.2004 8.88814L37.2003 8.88799L36.9914 9.03955ZM36.7785 8.9165L36.8063 8.65994L36.8059 8.6599L36.7785 8.9165ZM36.3234 9.10986L36.4513 9.33399L36.4515 9.33393L36.3234 9.10986ZM34.9289 9.90576H34.6708C34.6708 9.99773 34.7198 10.0827 34.7993 10.1289C34.8788 10.1751 34.9769 10.1755 35.0568 10.1299L34.9289 9.90576ZM34.9289 9.72607H35.187V9.72607H34.9289ZM34.7961 8.44873L35.026 8.33161L35.026 8.33154L34.7961 8.44873ZM34.2668 7.91846L34.3839 7.68852L34.3838 7.68847L34.2668 7.91846ZM32.9894 7.78662V8.04469V7.78662ZM35.0959 1.54932V1.80738C36.5538 1.80738 37.6018 1.80778 38.4235 1.87488L38.4445 1.61768L38.4655 1.36047C37.6179 1.29125 36.5451 1.29125 35.0959 1.29125V1.54932ZM38.4445 1.61768L38.4235 1.87488C39.236 1.94129 39.7602 2.06884 40.1848 2.28512L40.3019 2.05518L40.4191 1.82523C39.9096 1.56568 39.3099 1.42948 38.4655 1.36047L38.4445 1.61768ZM40.3019 2.05518L40.1848 2.28511C41.0102 2.70571 41.6817 3.37715 42.1023 4.20261L42.3322 4.08545L42.5622 3.96829C42.0921 3.04572 41.3417 2.29532 40.4191 1.82524L40.3019 2.05518ZM42.3322 4.08545L42.1023 4.20256C42.3185 4.62716 42.4461 5.15142 42.5125 5.96389L42.7697 5.94287L43.0269 5.92186C42.9579 5.07752 42.8216 4.4778 42.5622 3.96834L42.3322 4.08545ZM42.7697 5.94287L42.5125 5.96388C42.5796 6.78556 42.58 7.83275 42.58 9.29053H42.8381H43.0961C43.0961 7.84144 43.0961 6.76947 43.0269 5.92187L42.7697 5.94287ZM42.8381 9.29053H42.58V22.7104H42.8381H43.0961V9.29053H42.8381ZM42.8381 22.7104H42.58C42.58 24.1682 42.5796 25.2154 42.5125 26.0371L42.7697 26.0581L43.0269 26.0791C43.0962 25.2315 43.0961 24.1595 43.0961 22.7104H42.8381ZM42.7697 26.0581L42.5125 26.0371C42.4461 26.8494 42.3185 27.3739 42.1023 27.7984L42.3322 27.9155L42.5622 28.0327C42.8217 27.5232 42.9579 26.9233 43.0269 26.0791L42.7697 26.0581ZM42.3322 27.9155L42.1023 27.7983C41.8388 28.3153 41.476 28.7713 41.0388 29.1439L41.2062 29.3403L41.3737 29.5367C41.8616 29.1207 42.2673 28.6112 42.5621 28.0327L42.3322 27.9155ZM41.2062 29.3403L41.3524 29.1276L40.8065 28.7526L40.6603 28.9653L40.5142 29.178L41.0601 29.553L41.2062 29.3403ZM40.6603 28.9653L40.9183 28.9721L41.0843 22.6176L40.8264 22.6108L40.5684 22.6041L40.4024 28.9586L40.6603 28.9653ZM40.8264 22.6108L41.0843 22.6175C41.1768 19.0438 37.2159 16.9133 34.3057 18.8258L34.4474 19.0415L34.5892 19.2572C37.1555 17.5706 40.6499 19.4522 40.5684 22.6042L40.8264 22.6108ZM34.4474 19.0415L34.2982 18.831L34.0365 19.0165L34.1857 19.2271L34.335 19.4376L34.5967 19.252L34.4474 19.0415ZM34.1857 19.2271L34.0287 19.0223L29.3793 22.5877L29.5363 22.7925L29.6934 22.9973L34.3428 19.4318L34.1857 19.2271ZM29.5363 22.7925L29.7598 22.6634L21.3887 8.16442L21.1652 8.29346L20.9417 8.42249L29.3128 22.9215L29.5363 22.7925ZM21.1652 8.29346L21.4233 8.29429C21.4264 7.33254 21.4363 6.58316 21.4869 5.96388L21.2297 5.94287L20.9725 5.92187C20.92 6.56426 20.9103 7.33313 20.9072 8.29262L21.1652 8.29346ZM21.2297 5.94287L21.4869 5.96389C21.5533 5.15159 21.681 4.62711 21.8971 4.20254L21.6672 4.08545L21.4372 3.96836C21.1778 4.47775 21.0414 5.07765 20.9725 5.92186L21.2297 5.94287ZM21.6672 4.08545L21.8971 4.20261C22.3176 3.37734 22.9894 2.70574 23.8146 2.2851L23.6974 2.05518L23.5803 1.82526C22.658 2.29535 21.9072 3.04586 21.4372 3.96829L21.6672 4.08545ZM23.6974 2.05518L23.8146 2.28512C24.2391 2.06886 24.7635 1.9413 25.5759 1.87488L25.5549 1.61768L25.5338 1.36047C24.6897 1.42948 24.0898 1.5657 23.5803 1.82523L23.6974 2.05518ZM25.5549 1.61768L25.5759 1.87488C26.3975 1.80775 27.4448 1.80738 28.9025 1.80738V1.54932V1.29125C27.4535 1.29125 26.3814 1.29122 25.5339 1.36047L25.5549 1.61768ZM28.9025 1.54932V1.80738H35.0959V1.54932V1.29125H28.9025V1.54932ZM29.2941 7.78662V7.52856C28.9593 7.52856 28.6924 7.52835 28.4773 7.54588C28.2593 7.56365 28.0718 7.60092 27.8997 7.68846L28.0168 7.91846L28.1338 8.14846C28.2209 8.10413 28.333 8.07548 28.5193 8.0603C28.7085 8.04488 28.9508 8.04469 29.2941 8.04469V7.78662ZM28.0168 7.91846L27.8996 7.68853C27.6227 7.82965 27.3982 8.05555 27.2576 8.33154L27.4875 8.44873L27.7174 8.56592C27.8091 8.3861 27.955 8.23957 28.134 8.14839L28.0168 7.91846ZM27.4875 8.44873L27.2575 8.33161C27.17 8.50347 27.1324 8.69079 27.1144 8.90893C27.0966 9.12411 27.0966 9.39095 27.0966 9.72607H27.3547H27.6127C27.6127 9.38277 27.6131 9.14053 27.6288 8.95143C27.6441 8.7653 27.673 8.65316 27.7174 8.56586L27.4875 8.44873ZM27.3547 9.72607H27.0966V12.5122H27.3547H27.6127V9.72607H27.3547ZM27.3547 12.5122H27.0966C27.0966 12.8474 27.0966 13.1142 27.1144 13.3294C27.1324 13.5475 27.17 13.7348 27.2575 13.9066L27.4875 13.7896L27.7175 13.6725C27.673 13.5851 27.6442 13.473 27.6288 13.2869C27.6132 13.0978 27.6127 12.8555 27.6127 12.5122H27.3547ZM27.4875 13.7896L27.2576 13.9067C27.3982 14.1828 27.6227 14.4086 27.8996 14.5497L28.0168 14.3198L28.134 14.0899C27.955 13.9987 27.8091 13.8522 27.7174 13.6724L27.4875 13.7896ZM28.0168 14.3198L27.8997 14.5498C28.0718 14.6374 28.2593 14.6747 28.4773 14.6924C28.6924 14.7099 28.9592 14.7097 29.2941 14.7097V14.4517V14.1936C28.9507 14.1936 28.7085 14.1934 28.5192 14.178C28.333 14.1628 28.221 14.1342 28.1338 14.0898L28.0168 14.3198ZM29.2941 14.4517V14.7097H32.9894V14.4517V14.1936H29.2941V14.4517ZM32.9894 14.4517V14.7097C33.3243 14.7097 33.5912 14.7099 33.8063 14.6924C34.0243 14.6747 34.2118 14.6374 34.3838 14.5498L34.2668 14.3198L34.1497 14.0898C34.0626 14.1342 33.9506 14.1628 33.7643 14.178C33.5751 14.1934 33.3329 14.1936 32.9894 14.1936V14.4517ZM34.2668 14.3198L34.384 14.5497C34.6609 14.4086 34.8853 14.1828 35.026 13.9067L34.7961 13.7896L34.5661 13.6724C34.4745 13.8522 34.3286 13.9987 34.1496 14.0899L34.2668 14.3198ZM34.7961 13.7896L35.0261 13.9066C35.1135 13.7348 35.1511 13.5475 35.1692 13.3294C35.1869 13.1142 35.187 12.8473 35.187 12.5122H34.9289H34.6708C34.6708 12.8555 34.6704 13.0977 34.6548 13.2868C34.6394 13.473 34.6106 13.5851 34.5661 13.6725L34.7961 13.7896ZM34.9289 12.5122H35.187V12.3306H34.9289H34.6708V12.5122H34.9289ZM34.9289 12.3306L34.8009 12.5546L36.1954 13.3515L36.3234 13.1274L36.4515 12.9034L35.0569 12.1065L34.9289 12.3306ZM36.3234 13.1274L36.1954 13.3515C36.3098 13.4169 36.4112 13.4752 36.4961 13.5141C36.5797 13.5524 36.6863 13.5911 36.8058 13.5784L36.7785 13.3218L36.7512 13.0652C36.7731 13.0628 36.7711 13.0724 36.711 13.0448C36.6523 13.018 36.5749 12.9739 36.4515 12.9034L36.3234 13.1274ZM36.7785 13.3218L36.8063 13.5783C36.9649 13.5611 37.1078 13.4769 37.2004 13.3492L36.9914 13.1978L36.7824 13.0463C36.7745 13.0573 36.7624 13.0639 36.7507 13.0652L36.7785 13.3218ZM36.9914 13.1978L37.2007 13.3487C37.2706 13.2518 37.2902 13.1409 37.2987 13.0491C37.3073 12.9561 37.3071 12.8394 37.3071 12.7075H37.049H36.7909C36.7909 12.8493 36.7906 12.9379 36.7847 13.0017C36.7787 13.0668 36.7696 13.0642 36.7821 13.0468L36.9914 13.1978ZM37.049 12.7075H37.3071V9.53076H37.049H36.7909V12.7075H37.049ZM37.049 9.53076H37.3071C37.3071 9.39875 37.3073 9.28178 37.2988 9.18861C37.2904 9.09682 37.2708 8.98534 37.2004 8.88814L36.9914 9.03955L36.7824 9.19096C36.7696 9.17327 36.7788 9.17032 36.7848 9.23572C36.7907 9.29974 36.7909 9.38862 36.7909 9.53076H37.049ZM36.9914 9.03955L37.2003 8.88799C37.1067 8.75908 36.9631 8.67693 36.8063 8.65994L36.7785 8.9165L36.7507 9.17307C36.7641 9.17452 36.7756 9.1815 36.7825 9.19111L36.9914 9.03955ZM36.7785 8.9165L36.8059 8.6599C36.687 8.64719 36.5808 8.68518 36.4968 8.72337C36.4115 8.76212 36.3101 8.82024 36.1954 8.8858L36.3234 9.10986L36.4515 9.33393C36.5746 9.26356 36.6519 9.21979 36.7104 9.19324C36.77 9.16611 36.7724 9.17539 36.7511 9.17311L36.7785 8.9165ZM36.3234 9.10986L36.1955 8.88573L34.801 9.68163L34.9289 9.90576L35.0568 10.1299L36.4513 9.33399L36.3234 9.10986ZM34.9289 9.90576H35.187V9.72607H34.9289H34.6708V9.90576H34.9289ZM34.9289 9.72607H35.187C35.187 9.39096 35.187 9.12411 35.1692 8.90893C35.1512 8.6908 35.1136 8.50347 35.026 8.33161L34.7961 8.44873L34.5661 8.56585C34.6106 8.65316 34.6394 8.7653 34.6548 8.95144C34.6704 9.14054 34.6708 9.38278 34.6708 9.72607H34.9289ZM34.7961 8.44873L35.026 8.33154C34.8853 8.05554 34.6609 7.82964 34.3839 7.68852L34.2668 7.91846L34.1496 8.14839C34.3286 8.23956 34.4745 8.38606 34.5662 8.56592L34.7961 8.44873ZM34.2668 7.91846L34.3838 7.68847C34.2118 7.6009 34.0243 7.56362 33.8063 7.54586C33.5912 7.52834 33.3243 7.52856 32.9894 7.52856V7.78662V8.04469C33.3329 8.04469 33.5751 8.04487 33.7643 8.06029C33.9506 8.07546 34.0626 8.10411 34.1497 8.14844L34.2668 7.91846ZM32.9894 7.78662V7.52856H29.2941V7.78662V8.04469H32.9894V7.78662Z" fill="black" fill-opacity="0.1" mask="url(#path-3-inside-2_512_251)"/>
<mask id="path-5-inside-3_512_251" fill="white">
<path d="M15.0384 7.436C16.2356 7.37327 17.4226 7.69134 18.428 8.3442C18.9715 8.6972 19.4556 9.21392 20.0267 10.0395C20.6014 10.8704 21.2393 11.9765 22.1107 13.4858L27.1683 22.2456C27.1793 22.2647 27.1905 22.2842 27.2015 22.3032L23.3333 20.934C20.0594 19.7754 16.9041 22.9306 18.0628 26.2046L20.1839 32.1967L16.3148 37.2407C15.8612 37.832 15.5983 38.4798 15.4993 39.1313C15.4889 39.132 15.4785 39.1337 15.4681 39.1342C14.2708 39.197 13.083 38.879 12.0775 38.226C11.5341 37.8731 11.0508 37.3562 10.4798 36.5307C9.90515 35.6999 9.26718 34.5937 8.39582 33.0844L3.33821 24.3247C2.46679 22.8153 1.82802 21.7095 1.39582 20.7964C0.966367 19.889 0.759923 19.212 0.7259 18.5649C0.663165 17.3676 0.982094 16.1798 1.63508 15.1743C1.9881 14.6309 2.50488 14.1476 3.33039 13.5766C4.16124 13.0019 5.26735 12.3641 6.77668 11.4926L9.27863 10.0473C10.788 9.17591 11.8938 8.53812 12.807 8.10592C13.7144 7.67645 14.3912 7.46996 15.0384 7.436ZM14.5521 13.8159C14.181 13.8355 13.8047 14.0524 13.054 14.4858L9.74641 16.396C8.99619 16.8291 8.62071 17.0464 8.41828 17.3579C8.24041 17.632 8.15315 17.9563 8.17024 18.2827C8.18995 18.6536 8.40695 19.0294 8.84016 19.7797L10.2337 22.1938C10.6671 22.9445 10.884 23.3205 11.1956 23.5229C11.4697 23.7009 11.7941 23.787 12.1204 23.77C12.4914 23.7504 12.8671 23.5333 13.6175 23.1001L16.9251 21.1909C17.6755 20.7576 18.0516 20.5403 18.2542 20.229C18.4322 19.9548 18.5193 19.6306 18.5023 19.3042C18.4827 18.9331 18.2656 18.5576 17.8323 17.8071L16.4388 15.393C16.0053 14.6423 15.7885 14.2664 15.4769 14.0639C15.2027 13.8859 14.8786 13.7988 14.5521 13.8159Z"/>
</mask>
<path d="M15.0384 7.436C16.2356 7.37327 17.4226 7.69134 18.428 8.3442C18.9715 8.6972 19.4556 9.21392 20.0267 10.0395C20.6014 10.8704 21.2393 11.9765 22.1107 13.4858L27.1683 22.2456C27.1793 22.2647 27.1905 22.2842 27.2015 22.3032L23.3333 20.934C20.0594 19.7754 16.9041 22.9306 18.0628 26.2046L20.1839 32.1967L16.3148 37.2407C15.8612 37.832 15.5983 38.4798 15.4993 39.1313C15.4889 39.132 15.4785 39.1337 15.4681 39.1342C14.2708 39.197 13.083 38.879 12.0775 38.226C11.5341 37.8731 11.0508 37.3562 10.4798 36.5307C9.90515 35.6999 9.26718 34.5937 8.39582 33.0844L3.33821 24.3247C2.46679 22.8153 1.82802 21.7095 1.39582 20.7964C0.966367 19.889 0.759923 19.212 0.7259 18.5649C0.663165 17.3676 0.982094 16.1798 1.63508 15.1743C1.9881 14.6309 2.50488 14.1476 3.33039 13.5766C4.16124 13.0019 5.26735 12.3641 6.77668 11.4926L9.27863 10.0473C10.788 9.17591 11.8938 8.53812 12.807 8.10592C13.7144 7.67645 14.3912 7.46996 15.0384 7.436ZM14.5521 13.8159C14.181 13.8355 13.8047 14.0524 13.054 14.4858L9.74641 16.396C8.99619 16.8291 8.62071 17.0464 8.41828 17.3579C8.24041 17.632 8.15315 17.9563 8.17024 18.2827C8.18995 18.6536 8.40695 19.0294 8.84016 19.7797L10.2337 22.1938C10.6671 22.9445 10.884 23.3205 11.1956 23.5229C11.4697 23.7009 11.7941 23.787 12.1204 23.77C12.4914 23.7504 12.8671 23.5333 13.6175 23.1001L16.9251 21.1909C17.6755 20.7576 18.0516 20.5403 18.2542 20.229C18.4322 19.9548 18.5193 19.6306 18.5023 19.3042C18.4827 18.9331 18.2656 18.5576 17.8323 17.8071L16.4388 15.393C16.0053 14.6423 15.7885 14.2664 15.4769 14.0639C15.2027 13.8859 14.8786 13.7988 14.5521 13.8159Z" fill="url(#paint2_linear_512_251)"/>
<path d="M15.0384 7.436L15.0249 7.17829L15.0249 7.17829L15.0384 7.436ZM18.428 8.3442L18.5686 8.12778L18.5686 8.12776L18.428 8.3442ZM20.0267 10.0395L20.2389 9.89271L20.2389 9.89271L20.0267 10.0395ZM22.1107 13.4858L21.8872 13.6148L21.8872 13.6148L22.1107 13.4858ZM27.1683 22.2456L27.3918 22.1165L27.3918 22.1165L27.1683 22.2456ZM27.2015 22.3032L27.1154 22.5465C27.2173 22.5825 27.3308 22.5513 27.3999 22.4682C27.469 22.3851 27.479 22.2677 27.425 22.1742L27.2015 22.3032ZM23.3333 20.934L23.4194 20.6908L23.4194 20.6908L23.3333 20.934ZM18.0628 26.2046L17.8195 26.2907L17.8195 26.2907L18.0628 26.2046ZM20.1839 32.1967L20.3887 32.3538C20.4418 32.2845 20.4563 32.193 20.4272 32.1106L20.1839 32.1967ZM16.3148 37.2407L16.11 37.0836L16.11 37.0836L16.3148 37.2407ZM15.4993 39.1313L15.5152 39.3889C15.6366 39.3814 15.7362 39.2903 15.7545 39.1701L15.4993 39.1313ZM15.4681 39.1342L15.4816 39.392L15.4816 39.392L15.4681 39.1342ZM12.0775 38.226L11.9369 38.4424L11.9369 38.4425L12.0775 38.226ZM10.4798 36.5307L10.2676 36.6775L10.2676 36.6775L10.4798 36.5307ZM8.39582 33.0844L8.61931 32.9554L8.61931 32.9554L8.39582 33.0844ZM3.33821 24.3247L3.11471 24.4537L3.11472 24.4537L3.33821 24.3247ZM1.39582 20.7964L1.16257 20.9068L1.16257 20.9068L1.39582 20.7964ZM0.7259 18.5649L0.468189 18.5784L0.468192 18.5785L0.7259 18.5649ZM1.63508 15.1743L1.41868 15.0337L1.41865 15.0337L1.63508 15.1743ZM3.33039 13.5766L3.18359 13.3644L3.18359 13.3644L3.33039 13.5766ZM6.77668 11.4926L6.90571 11.7161L6.90577 11.7161L6.77668 11.4926ZM9.27864 10.0473L9.1496 9.82384L9.14955 9.82387L9.27864 10.0473ZM12.807 8.10592L12.6966 7.87266L12.6965 7.87267L12.807 8.10592ZM14.5521 13.8159L14.5386 13.5582L14.5384 13.5582L14.5521 13.8159ZM13.054 14.4858L12.925 14.2623L12.925 14.2623L13.054 14.4858ZM9.74641 16.396L9.87544 16.6195L9.87547 16.6194L9.74641 16.396ZM8.41828 17.3579L8.2019 17.2173L8.2018 17.2174L8.41828 17.3579ZM8.17024 18.2827L7.91252 18.2962L7.91254 18.2964L8.17024 18.2827ZM8.84016 19.7797L9.06366 19.6507L9.06365 19.6507L8.84016 19.7797ZM10.2337 22.1938L10.0102 22.3228L10.0102 22.3228L10.2337 22.1938ZM11.1956 23.5229L11.055 23.7393L11.0551 23.7394L11.1956 23.5229ZM12.1204 23.77L12.1339 24.0277L12.134 24.0277L12.1204 23.77ZM13.6175 23.1001L13.4885 22.8766L13.4885 22.8766L13.6175 23.1001ZM16.9251 21.1909L17.0541 21.4144L17.0542 21.4144L16.9251 21.1909ZM18.2542 20.229L18.4705 20.3697L18.4707 20.3695L18.2542 20.229ZM18.5023 19.3042L18.76 19.2907L18.76 19.2906L18.5023 19.3042ZM17.8323 17.8071L17.6088 17.9361L17.6089 17.9361L17.8323 17.8071ZM16.4388 15.393L16.6623 15.264L16.6623 15.264L16.4388 15.393ZM15.4769 14.0639L15.6175 13.8475L15.6174 13.8475L15.4769 14.0639ZM15.0384 7.436L15.0519 7.69371C16.1947 7.63383 17.3278 7.93745 18.2875 8.56064L18.428 8.3442L18.5686 8.12776C17.5174 7.44523 16.2765 7.1127 15.0249 7.17829L15.0384 7.436ZM18.428 8.3442L18.2875 8.56062C18.7911 8.88774 19.2526 9.37405 19.8144 10.1863L20.0267 10.0395L20.2389 9.89271C19.6586 9.05379 19.1519 8.50665 18.5686 8.12778L18.428 8.3442ZM20.0267 10.0395L19.8144 10.1863C20.3817 11.0064 21.0135 12.1016 21.8872 13.6148L22.1107 13.4858L22.3342 13.3568C21.465 11.8514 20.821 10.7343 20.2389 9.89271L20.0267 10.0395ZM22.1107 13.4858L21.8872 13.6148L26.9448 22.3746L27.1683 22.2456L27.3918 22.1165L22.3342 13.3568L22.1107 13.4858ZM27.1683 22.2456L26.9448 22.3746C26.9502 22.384 26.9557 22.3935 26.9613 22.4032C26.9668 22.4128 26.9724 22.4226 26.978 22.4322L27.2015 22.3032L27.425 22.1742C27.4196 22.1648 27.4141 22.1553 27.4086 22.1457C27.403 22.1361 27.3974 22.1263 27.3918 22.1165L27.1683 22.2456ZM27.2015 22.3032L27.2876 22.0599L23.4194 20.6908L23.3333 20.934L23.2472 21.1773L27.1154 22.5465L27.2015 22.3032ZM23.3333 20.934L23.4194 20.6908C19.9409 19.4597 16.5884 22.8121 17.8195 26.2907L18.0628 26.2046L18.3061 26.1185C17.2198 23.0492 20.1779 20.0911 23.2472 21.1773L23.3333 20.934ZM18.0628 26.2046L17.8195 26.2907L19.9406 32.2829L20.1839 32.1967L20.4272 32.1106L18.3061 26.1184L18.0628 26.2046ZM20.1839 32.1967L19.9791 32.0397L16.11 37.0836L16.3148 37.2407L16.5195 37.3978L20.3887 32.3538L20.1839 32.1967ZM16.3148 37.2407L16.11 37.0836C15.6298 37.7097 15.3496 38.3982 15.2442 39.0926L15.4993 39.1313L15.7545 39.1701C15.8469 38.5613 16.0927 37.9543 16.5195 37.3977L16.3148 37.2407ZM15.4993 39.1313L15.4835 38.8737C15.4765 38.8742 15.4703 38.8747 15.4657 38.8752C15.4613 38.8756 15.457 38.8761 15.455 38.8764C15.449 38.877 15.451 38.8767 15.4545 38.8765L15.4681 39.1342L15.4816 39.392C15.4955 39.3912 15.508 39.3898 15.5124 39.3893C15.5193 39.3885 15.5177 39.3887 15.5152 39.3889L15.4993 39.1313ZM15.4681 39.1342L15.4546 38.8765C14.3117 38.9364 13.1778 38.6329 12.218 38.0096L12.0775 38.226L11.9369 38.4425C12.9882 39.1252 14.2299 39.4575 15.4816 39.392L15.4681 39.1342ZM12.0775 38.226L12.2181 38.0096C11.7146 37.6826 11.2539 37.1962 10.692 36.3839L10.4798 36.5307L10.2676 36.6775C10.8476 37.5161 11.3536 38.0635 11.9369 38.4424L12.0775 38.226ZM10.4798 36.5307L10.692 36.3839C10.1248 35.5638 9.49292 34.4685 8.61931 32.9554L8.39582 33.0844L8.17233 33.2135C9.04144 34.7188 9.68549 35.836 10.2676 36.6775L10.4798 36.5307ZM8.39582 33.0844L8.61931 32.9554L3.56169 24.1956L3.33821 24.3247L3.11472 24.4537L8.17233 33.2135L8.39582 33.0844ZM3.33821 24.3247L3.5617 24.1956C2.68807 22.6825 2.0557 21.5873 1.62908 20.6859L1.39582 20.7964L1.16257 20.9068C1.60034 21.8316 2.24552 22.9482 3.11471 24.4537L3.33821 24.3247ZM1.39582 20.7964L1.62908 20.6859C1.20642 19.793 1.01513 19.1508 0.983609 18.5514L0.7259 18.5649L0.468192 18.5785C0.504718 19.2732 0.726317 19.9851 1.16257 20.9068L1.39582 20.7964ZM0.7259 18.5649L0.983611 18.5514C0.923732 17.4086 1.22815 16.2747 1.85151 15.3148L1.63508 15.1743L1.41865 15.0337C0.736033 16.0849 0.402597 17.3266 0.468189 18.5784L0.7259 18.5649ZM1.63508 15.1743L1.85148 15.3149C2.17857 14.8115 2.66487 14.3507 3.4772 13.7889L3.33039 13.5766L3.18359 13.3644C2.34489 13.9445 1.79763 14.4504 1.41868 15.0337L1.63508 15.1743ZM3.33039 13.5766L3.47719 13.7889C4.29732 13.2216 5.39248 12.5898 6.90571 11.7161L6.77668 11.4926L6.64765 11.2691C5.14222 12.1383 4.02517 12.7823 3.18359 13.3644L3.33039 13.5766ZM6.77668 11.4926L6.90577 11.7161L9.40772 10.2708L9.27864 10.0473L9.14955 9.82387L6.64759 11.2692L6.77668 11.4926ZM9.27864 10.0473L9.40767 10.2708C10.9207 9.39727 12.016 8.76582 12.9174 8.33918L12.807 8.10592L12.6965 7.87267C11.7717 8.31042 10.6553 8.95454 9.1496 9.82384L9.27864 10.0473ZM12.807 8.10592L12.9174 8.33918C13.8104 7.91649 14.4524 7.72517 15.0519 7.69371L15.0384 7.436L15.0249 7.17829C14.3301 7.21476 13.6183 7.43641 12.6966 7.87266L12.807 8.10592ZM14.5521 13.8159L14.5384 13.5582C14.3054 13.5705 14.0838 13.6447 13.835 13.7624C13.589 13.8788 13.2967 14.0477 12.925 14.2623L13.054 14.4858L13.1831 14.7093C13.562 14.4905 13.8332 14.3343 14.0558 14.229C14.2756 14.1249 14.4277 14.0809 14.5657 14.0736L14.5521 13.8159ZM13.054 14.4858L12.925 14.2623L9.61735 16.1725L9.74641 16.396L9.87547 16.6194L13.1831 14.7093L13.054 14.4858ZM9.74641 16.396L9.61738 16.1725C9.24589 16.3869 8.9537 16.5555 8.73005 16.7103C8.50394 16.8668 8.32902 17.0216 8.2019 17.2173L8.41828 17.3579L8.63467 17.4985C8.70998 17.3826 8.82401 17.273 9.0238 17.1347C9.22604 16.9947 9.49671 16.8381 9.87544 16.6195L9.74641 16.396ZM8.41828 17.3579L8.2018 17.2174C7.9944 17.537 7.89257 17.9152 7.91253 18.2962L8.17024 18.2827L8.42795 18.2692C8.41372 17.9975 8.48641 17.727 8.63476 17.4983L8.41828 17.3579ZM8.17024 18.2827L7.91254 18.2964C7.92492 18.5294 7.99922 18.7509 8.1169 18.9994C8.23332 19.2452 8.40219 19.5373 8.61667 19.9088L8.84016 19.7797L9.06365 19.6507C8.84492 19.2719 8.68869 19.0009 8.58337 18.7785C8.47933 18.5588 8.43527 18.4069 8.42794 18.269L8.17024 18.2827ZM8.84016 19.7797L8.61666 19.9088L10.0102 22.3228L10.2337 22.1938L10.4572 22.0648L9.06366 19.6507L8.84016 19.7797ZM10.2337 22.1938L10.0102 22.3228C10.2248 22.6945 10.3933 22.9869 10.5481 23.2107C10.7045 23.437 10.8592 23.6121 11.055 23.7393L11.1956 23.5229L11.3362 23.3065C11.2204 23.2313 11.1109 23.1172 10.9726 22.9172C10.8326 22.7147 10.676 22.4438 10.4572 22.0648L10.2337 22.1938ZM11.1956 23.5229L11.0551 23.7394C11.3752 23.9472 11.7536 24.0475 12.1339 24.0277L12.1204 23.77L12.107 23.5123C11.8346 23.5265 11.5642 23.4545 11.3362 23.3065L11.1956 23.5229ZM12.1204 23.77L12.134 24.0277C12.3671 24.0154 12.5887 23.9411 12.8372 23.8234C13.083 23.7069 13.375 23.538 13.7465 23.3236L13.6175 23.1001L13.4885 22.8766C13.1096 23.0953 12.8386 23.2516 12.6162 23.3569C12.3966 23.461 12.2447 23.505 12.1068 23.5123L12.1204 23.77ZM13.6175 23.1001L13.7465 23.3236L17.0541 21.4144L16.9251 21.1909L16.7961 20.9674L13.4885 22.8766L13.6175 23.1001ZM16.9251 21.1909L17.0542 21.4144C17.4257 21.1999 17.7181 21.0313 17.9419 20.8765C18.1681 20.72 18.3433 20.5653 18.4705 20.3697L18.2542 20.229L18.0379 20.0882C17.9626 20.204 17.8484 20.3136 17.6483 20.452C17.4458 20.592 17.175 20.7487 16.7961 20.9674L16.9251 21.1909ZM18.2542 20.229L18.4707 20.3695C18.6783 20.0498 18.7798 19.6716 18.76 19.2907L18.5023 19.3042L18.2446 19.3176C18.2587 19.5895 18.1862 19.8599 18.0378 20.0884L18.2542 20.229ZM18.5023 19.3042L18.76 19.2906C18.7477 19.0575 18.6734 18.8359 18.5557 18.5874C18.4393 18.3416 18.2703 18.0496 18.0558 17.6781L17.8323 17.8071L17.6089 17.9361C17.8276 18.3151 17.9839 18.586 18.0892 18.8084C18.1933 19.028 18.2373 19.1798 18.2446 19.3177L18.5023 19.3042ZM17.8323 17.8071L18.0558 17.6781L16.6623 15.264L16.4388 15.393L16.2153 15.522L17.6088 17.9361L17.8323 17.8071ZM16.4388 15.393L16.6623 15.264C16.4477 14.8923 16.2791 14.5999 16.1244 14.3761C15.968 14.1499 15.8133 13.9747 15.6175 13.8475L15.4769 14.0639L15.3363 14.2803C15.4521 14.3556 15.5616 14.4696 15.6999 14.6696C15.8399 14.8721 15.9964 15.143 16.2153 15.5221L16.4388 15.393ZM15.4769 14.0639L15.6174 13.8475C15.2976 13.6399 14.9196 13.5382 14.5386 13.5582L14.5521 13.8159L14.5656 14.0736C14.8375 14.0593 15.1077 14.1319 15.3363 14.2804L15.4769 14.0639Z" fill="black" fill-opacity="0.1" mask="url(#path-5-inside-3_512_251)"/>
<path d="M36.6788 39.7756L35.9489 39.0457L35.9488 39.0458L36.6788 39.7756ZM55.2969 54.7434L56.0269 54.0135L56.0269 54.0135L55.2969 54.7434ZM55.2969 58.3938L56.0268 59.1238L56.0269 59.1237L55.2969 58.3938ZM51.6465 58.3938L50.9166 59.1237L50.9167 59.1238L51.6465 58.3938ZM36.6788 39.7756L37.4087 40.5056C38.0134 39.9009 38.9946 39.9009 39.5992 40.5056L40.3292 39.7756L41.0591 39.0457C39.6482 37.6348 37.3598 37.6348 35.9489 39.0457L36.6788 39.7756ZM40.3292 39.7756L39.5992 40.5056L54.567 55.4733L55.2969 54.7434L56.0269 54.0135L41.0591 39.0457L40.3292 39.7756ZM55.2969 54.7434L54.567 55.4733C55.1716 56.078 55.1716 57.0593 54.567 57.6639L55.2969 58.3938L56.0269 59.1237C57.4378 57.7128 57.4376 55.4244 56.0269 54.0135L55.2969 54.7434ZM55.2969 58.3938L54.5671 57.6638C53.9624 58.2684 52.981 58.2684 52.3764 57.6638L51.6465 58.3938L50.9167 59.1238C52.3276 60.5344 54.6159 60.5344 56.0268 59.1238L55.2969 58.3938ZM51.6465 58.3938L52.3765 57.6639L37.4087 42.6961L36.6788 43.426L35.9489 44.1559L50.9166 59.1237L51.6465 58.3938ZM36.6788 43.426L37.4087 42.6961C36.8041 42.0916 36.8041 41.1103 37.4088 40.5055L36.6788 39.7756L35.9488 39.0458C34.5382 40.4566 34.5379 42.745 35.9489 44.1559L36.6788 43.426Z" fill="white"/>
<path d="M20.7979 25.2122C20.5082 24.3937 21.2969 23.605 22.1154 23.8947L29.1646 26.3897C29.494 26.5062 29.86 26.4483 30.1373 26.2356L36.0704 21.6845C36.7593 21.156 37.7532 21.6624 37.7306 22.5304L37.5361 30.0055C37.527 30.3548 37.6952 30.685 37.9832 30.8829L44.145 35.1193C44.8604 35.6112 44.6859 36.7129 43.8535 36.9596L36.6841 39.0846C36.3491 39.1839 36.0871 39.4459 35.9878 39.7809L33.8628 46.9503C33.6161 47.7827 32.5144 47.9572 32.0225 47.2418L27.7861 41.0799C27.5882 40.792 27.258 40.6238 26.9087 40.6329L19.4336 40.8274C18.5656 40.85 18.0592 39.8561 18.5877 39.1672L23.1388 33.2341C23.3515 32.9568 23.4094 32.5908 23.2929 32.2614L20.7979 25.2122Z" stroke="white" stroke-width="2.06452" stroke-linecap="round" stroke-linejoin="round"/>
<circle cx="32.6943" cy="9.79401" r="0.683899" fill="#42C978"/>
<circle cx="14.2466" cy="16.193" r="0.701935" transform="rotate(-30 14.2466 16.193)" fill="#E45FF1"/>
<path d="M14.9538 19.3082L12.5355 18.5562C12.3075 18.4853 12.0673 18.6231 12.0135 18.8557L11.4396 21.3353C11.3586 21.6851 11.734 21.9631 12.045 21.7835L15.0372 20.056C15.3473 19.8769 15.2957 19.4145 14.9538 19.3082Z" fill="#E45FF1"/>
<defs>
<linearGradient id="paint0_linear_512_251" x1="55.1953" y1="10.7206" x2="43.1393" y2="39.452" gradientUnits="userSpaceOnUse">
<stop stop-color="#3C87FF"/>
<stop offset="1" stop-color="#4EF6FF"/>
</linearGradient>
<linearGradient id="paint1_linear_512_251" x1="32.0016" y1="1.54932" x2="32.0016" y2="29.3403" gradientUnits="userSpaceOnUse">
<stop stop-color="#42C978"/>
<stop offset="1" stop-color="#E4F250"/>
</linearGradient>
<linearGradient id="paint2_linear_512_251" x1="6.50659" y1="13.0723" x2="19.108" y2="34.7011" gradientUnits="userSpaceOnUse">
<stop stop-color="#DC51FF"/>
<stop offset="1" stop-color="#FF8EBF"/>
</linearGradient>
</defs>
</svg>
