<svg width="64" height="64" viewBox="0 0 64 64" fill="none" xmlns="http://www.w3.org/2000/svg">
<mask id="path-1-inside-1_512_250" fill="white">
<path d="M48.7722 6.61249C50.1333 6.68383 51.5108 7.47876 54.2644 9.06855L58.198 11.34C60.951 12.9295 62.3276 13.7246 63.07 14.8674C63.723 15.8729 64.041 17.0597 63.9782 18.257C63.9069 19.6182 63.112 20.9956 61.5222 23.7492L55.6384 33.9396C54.0487 36.6931 53.2541 38.0703 52.1111 38.8127C51.1055 39.4657 49.9187 39.7836 48.7214 39.7209C48.0087 39.6835 47.2924 39.4465 46.3757 39.0021C48.1992 37.3128 48.2013 34.1507 45.8991 32.5676L43.2321 30.7336C43.9468 29.9913 44.3874 28.983 44.3874 27.8713V8.41523C44.7086 8.04161 45.0295 7.75058 45.3835 7.5207C46.3889 6.86792 47.5752 6.54985 48.7722 6.61249ZM52.7146 16.4162C52.6052 16.4197 52.5027 16.4663 52.4294 16.5451L52.0808 16.9191C51.6056 17.4317 50.9886 17.7973 50.3034 17.9719C49.6185 18.1463 48.8926 18.1232 48.2116 17.9055L47.7126 17.7463C47.6224 17.7173 47.5247 17.7195 47.4372 17.7521C47.35 17.7849 47.2774 17.8462 47.2312 17.926C47.1849 18.0061 47.1679 18.1004 47.1833 18.1926C47.1987 18.2847 47.2449 18.3702 47.3152 18.4338L47.7038 18.7844C48.2328 19.2649 48.6157 19.8816 48.8073 20.5617C48.9989 21.2419 48.9914 21.9576 48.7859 22.6252L48.6355 23.1154C48.6088 23.2037 48.6129 23.2993 48.6482 23.3859C48.6834 23.4725 48.7481 23.5458 48.8298 23.593C48.9113 23.6398 49.0061 23.6583 49.0984 23.6457C49.1909 23.6328 49.2766 23.5889 49.3396 23.5217L49.6882 23.1476C50.1635 22.6349 50.7801 22.2695 51.4655 22.0949C52.1509 21.9204 52.8771 21.9433 53.5583 22.1613L54.0554 22.3225C54.1457 22.3517 54.2431 22.3493 54.3308 22.3166C54.4183 22.2839 54.4915 22.2228 54.5378 22.1428C54.5841 22.0625 54.6012 21.9675 54.5857 21.8752C54.5701 21.7829 54.5233 21.6975 54.4529 21.634L54.0652 21.2824C53.5356 20.8017 53.1524 20.1847 52.9607 19.5041C52.769 18.8235 52.7762 18.1075 52.9821 17.4396L53.1335 16.9504C53.1562 16.8766 53.1575 16.797 53.1364 16.7219C53.1153 16.6469 53.0726 16.5787 53.0144 16.5256L53.0134 16.5266C52.9317 16.4526 52.824 16.4128 52.7146 16.4162ZM56.3874 17.2141C56.1322 17.0878 55.9332 17.7293 55.3464 17.8967C54.7601 18.0678 54.2995 17.606 54.154 17.8576C54.0089 18.1093 54.5643 18.2975 54.779 18.8928C54.9933 19.4872 54.545 19.9264 54.8152 20.0656C55.0863 20.2052 55.3065 19.6628 55.8239 19.51C56.3402 19.3591 56.9336 19.7602 57.0691 19.4934C57.2033 19.2259 56.5391 19.008 56.3659 18.4289C56.2045 17.8865 56.588 17.4039 56.4275 17.2414L56.3874 17.2141Z"/>
</mask>
<path d="M48.7722 6.61249C50.1333 6.68383 51.5108 7.47876 54.2644 9.06855L58.198 11.34C60.951 12.9295 62.3276 13.7246 63.07 14.8674C63.723 15.8729 64.041 17.0597 63.9782 18.257C63.9069 19.6182 63.112 20.9956 61.5222 23.7492L55.6384 33.9396C54.0487 36.6931 53.2541 38.0703 52.1111 38.8127C51.1055 39.4657 49.9187 39.7836 48.7214 39.7209C48.0087 39.6835 47.2924 39.4465 46.3757 39.0021C48.1992 37.3128 48.2013 34.1507 45.8991 32.5676L43.2321 30.7336C43.9468 29.9913 44.3874 28.983 44.3874 27.8713V8.41523C44.7086 8.04161 45.0295 7.75058 45.3835 7.5207C46.3889 6.86792 47.5752 6.54985 48.7722 6.61249ZM52.7146 16.4162C52.6052 16.4197 52.5027 16.4663 52.4294 16.5451L52.0808 16.9191C51.6056 17.4317 50.9886 17.7973 50.3034 17.9719C49.6185 18.1463 48.8926 18.1232 48.2116 17.9055L47.7126 17.7463C47.6224 17.7173 47.5247 17.7195 47.4372 17.7521C47.35 17.7849 47.2774 17.8462 47.2312 17.926C47.1849 18.0061 47.1679 18.1004 47.1833 18.1926C47.1987 18.2847 47.2449 18.3702 47.3152 18.4338L47.7038 18.7844C48.2328 19.2649 48.6157 19.8816 48.8073 20.5617C48.9989 21.2419 48.9914 21.9576 48.7859 22.6252L48.6355 23.1154C48.6088 23.2037 48.6129 23.2993 48.6482 23.3859C48.6834 23.4725 48.7481 23.5458 48.8298 23.593C48.9113 23.6398 49.0061 23.6583 49.0984 23.6457C49.1909 23.6328 49.2766 23.5889 49.3396 23.5217L49.6882 23.1476C50.1635 22.6349 50.7801 22.2695 51.4655 22.0949C52.1509 21.9204 52.8771 21.9433 53.5583 22.1613L54.0554 22.3225C54.1457 22.3517 54.2431 22.3493 54.3308 22.3166C54.4183 22.2839 54.4915 22.2228 54.5378 22.1428C54.5841 22.0625 54.6012 21.9675 54.5857 21.8752C54.5701 21.7829 54.5233 21.6975 54.4529 21.634L54.0652 21.2824C53.5356 20.8017 53.1524 20.1847 52.9607 19.5041C52.769 18.8235 52.7762 18.1075 52.9821 17.4396L53.1335 16.9504C53.1562 16.8766 53.1575 16.797 53.1364 16.7219C53.1153 16.6469 53.0726 16.5787 53.0144 16.5256L53.0134 16.5266C52.9317 16.4526 52.824 16.4128 52.7146 16.4162ZM56.3874 17.2141C56.1322 17.0878 55.9332 17.7293 55.3464 17.8967C54.7601 18.0678 54.2995 17.606 54.154 17.8576C54.0089 18.1093 54.5643 18.2975 54.779 18.8928C54.9933 19.4872 54.545 19.9264 54.8152 20.0656C55.0863 20.2052 55.3065 19.6628 55.8239 19.51C56.3402 19.3591 56.9336 19.7602 57.0691 19.4934C57.2033 19.2259 56.5391 19.008 56.3659 18.4289C56.2045 17.8865 56.588 17.4039 56.4275 17.2414L56.3874 17.2141Z" fill="url(#paint0_linear_512_250)"/>
<path d="M48.7722 6.61249L48.7857 6.35478L48.7857 6.35478L48.7722 6.61249ZM54.2644 9.06855L54.3934 8.84507L54.3934 8.84506L54.2644 9.06855ZM58.198 11.34L58.0689 11.5635L58.0689 11.5635L58.198 11.34ZM63.07 14.8674L63.2865 14.7268L63.2864 14.7268L63.07 14.8674ZM63.9782 18.257L64.236 18.2705V18.2705L63.9782 18.257ZM61.5222 23.7492L61.7457 23.8783L61.7457 23.8782L61.5222 23.7492ZM55.6384 33.9396L55.4149 33.8106L55.4149 33.8106L55.6384 33.9396ZM52.1111 38.8127L52.2516 39.0291L52.2516 39.0291L52.1111 38.8127ZM48.7214 39.7209L48.7079 39.9786H48.7079L48.7214 39.7209ZM46.3757 39.0021L46.2003 38.8128C46.1378 38.8708 46.1079 38.9559 46.1205 39.0402C46.133 39.1245 46.1864 39.1972 46.2631 39.2344L46.3757 39.0021ZM45.8991 32.5676L46.0454 32.3549L46.0454 32.3549L45.8991 32.5676ZM43.2321 30.7336L43.0462 30.5546C42.9937 30.6092 42.9678 30.6842 42.9754 30.7596C42.983 30.835 43.0235 30.9033 43.0859 30.9462L43.2321 30.7336ZM44.3874 27.8713L44.6455 27.8713V27.8713H44.3874ZM44.3874 8.41523L44.1917 8.24701C44.1515 8.29382 44.1294 8.3535 44.1294 8.41523H44.3874ZM45.3835 7.5207L45.243 7.30426L45.243 7.30427L45.3835 7.5207ZM52.7146 16.4162L52.7066 16.1583L52.7063 16.1583L52.7146 16.4162ZM52.4294 16.5451L52.6182 16.7211L52.6183 16.7209L52.4294 16.5451ZM52.0808 16.9191L51.892 16.7432L51.8915 16.7437L52.0808 16.9191ZM50.3034 17.9719L50.3671 18.2219L50.3672 18.2219L50.3034 17.9719ZM48.2116 17.9055L48.2902 17.6597L48.2901 17.6596L48.2116 17.9055ZM47.7126 17.7463L47.6336 17.992L47.6342 17.9921L47.7126 17.7463ZM47.4372 17.7521L47.3469 17.5104L47.3465 17.5105L47.4372 17.7521ZM47.2312 17.926L47.0079 17.7966L47.0077 17.7969L47.2312 17.926ZM47.1833 18.1926L46.9288 18.235L46.9288 18.2351L47.1833 18.1926ZM47.3152 18.4338L47.1419 18.625L47.1423 18.6254L47.3152 18.4338ZM47.7038 18.7844L47.8774 18.5934L47.8767 18.5927L47.7038 18.7844ZM48.8073 20.5617L49.0557 20.4917L49.0557 20.4917L48.8073 20.5617ZM48.7859 22.6252L48.5392 22.5493L48.5391 22.5495L48.7859 22.6252ZM48.6355 23.1154L48.3887 23.0397L48.3885 23.0407L48.6355 23.1154ZM48.6482 23.3859L48.4091 23.4831L48.4092 23.4833L48.6482 23.3859ZM48.8298 23.593L48.7008 23.8165L48.7013 23.8167L48.8298 23.593ZM49.0984 23.6457L49.1334 23.9014L49.1339 23.9013L49.0984 23.6457ZM49.3396 23.5217L49.5278 23.6982L49.5283 23.6976L49.3396 23.5217ZM49.6882 23.1476L49.877 23.3236L49.8775 23.3231L49.6882 23.1476ZM51.4655 22.0949L51.4019 21.8448L51.4018 21.8448L51.4655 22.0949ZM53.5583 22.1613L53.6379 21.9158L53.637 21.9155L53.5583 22.1613ZM54.0554 22.3225L54.135 22.077L54.135 22.077L54.0554 22.3225ZM54.3308 22.3166L54.4209 22.5584L54.4211 22.5583L54.3308 22.3166ZM54.5378 22.1428L54.7611 22.2722L54.7613 22.2717L54.5378 22.1428ZM54.5857 21.8752L54.8402 21.8324L54.8401 21.8322L54.5857 21.8752ZM54.4529 21.634L54.2795 21.8251L54.2801 21.8257L54.4529 21.634ZM54.0652 21.2824L53.8917 21.4735L53.8918 21.4736L54.0652 21.2824ZM52.9607 19.5041L52.7123 19.5741L52.7123 19.5741L52.9607 19.5041ZM52.9821 17.4396L52.7356 17.3634L52.7355 17.3636L52.9821 17.4396ZM53.1335 16.9504L53.38 17.0267L53.3802 17.0263L53.1335 16.9504ZM53.1364 16.7219L53.3849 16.6521L53.3848 16.6519L53.1364 16.7219ZM53.0144 16.5256L53.1883 16.335C53.0864 16.242 52.9294 16.2456 52.8319 16.3431L53.0144 16.5256ZM53.0134 16.5266L52.8402 16.7179C52.9421 16.8102 53.0986 16.8063 53.1959 16.709L53.0134 16.5266ZM56.3874 17.2141L56.533 17.0009C56.523 16.9942 56.5126 16.9881 56.5018 16.9827L56.3874 17.2141ZM55.3464 17.8967L55.2756 17.6485L55.2741 17.6489L55.3464 17.8967ZM54.154 17.8576L53.9306 17.7285L53.9304 17.7287L54.154 17.8576ZM54.779 18.8928L55.0218 18.8052L55.0218 18.8052L54.779 18.8928ZM54.8152 20.0656L54.697 20.295L54.697 20.2951L54.8152 20.0656ZM55.8239 19.51L55.7515 19.2623L55.7508 19.2625L55.8239 19.51ZM57.0691 19.4934L57.2992 19.6102L57.2997 19.6091L57.0691 19.4934ZM56.3659 18.4289L56.1186 18.5025L56.1187 18.5028L56.3659 18.4289ZM56.4275 17.2414L56.6111 17.06C56.5994 17.0483 56.5867 17.0376 56.573 17.0283L56.4275 17.2414ZM48.7722 6.61249L48.7587 6.8702C49.3917 6.90338 50.0415 7.10484 50.8857 7.50436C51.7327 7.90518 52.7549 8.49502 54.1353 9.29204L54.2644 9.06855L54.3934 8.84506C53.0203 8.05228 51.977 7.44977 51.1065 7.03784C50.2333 6.62462 49.5138 6.39294 48.7857 6.35478L48.7722 6.61249ZM54.2644 9.06855L54.1353 9.29203L58.0689 11.5635L58.198 11.34L58.327 11.1166L54.3934 8.84507L54.2644 9.06855ZM58.198 11.34L58.0689 11.5635C59.4491 12.3604 60.4708 12.9505 61.2412 13.4834C62.0091 14.0146 62.5084 14.4765 62.8536 15.008L63.07 14.8674L63.2864 14.7268C62.8893 14.1155 62.329 13.6084 61.5348 13.059C60.743 12.5113 59.6998 11.9092 58.327 11.1165L58.198 11.34ZM63.07 14.8674L62.8536 15.0079C63.4769 15.9677 63.7804 17.1007 63.7205 18.2435L63.9782 18.257L64.236 18.2705C64.3015 17.0188 63.9691 15.778 63.2865 14.7268L63.07 14.8674ZM63.9782 18.257L63.7205 18.2435C63.6874 18.8765 63.4859 19.5263 63.0864 20.3705C62.6856 21.2175 62.0957 22.2397 61.2987 23.6202L61.5222 23.7492L61.7457 23.8782C62.5385 22.5051 63.141 21.4618 63.5529 20.5913C63.9661 19.7182 64.1978 18.9987 64.236 18.2705L63.9782 18.257ZM61.5222 23.7492L61.2987 23.6202L55.4149 33.8106L55.6384 33.9396L55.8619 34.0687L61.7457 23.8783L61.5222 23.7492ZM55.6384 33.9396L55.4149 33.8106C54.6179 35.1911 54.0278 36.213 53.4949 36.9836C52.9638 37.7517 52.502 38.251 51.9705 38.5963L52.1111 38.8127L52.2516 39.0291C52.8631 38.632 53.3701 38.0715 53.9195 37.2771C54.4671 36.4852 55.0692 35.4417 55.8619 34.0687L55.6384 33.9396ZM52.1111 38.8127L51.9705 38.5963C51.0107 39.2196 49.8778 39.5231 48.7349 39.4632L48.7214 39.7209L48.7079 39.9786C49.9596 40.0442 51.2004 39.7118 52.2516 39.0291L52.1111 38.8127ZM48.7214 39.7209L48.7349 39.4632C48.0722 39.4284 47.392 39.208 46.4883 38.7699L46.3757 39.0021L46.2631 39.2344C47.1928 39.685 47.9453 39.9386 48.7079 39.9786L48.7214 39.7209ZM46.3757 39.0021L46.5511 39.1915C48.4865 37.3985 48.4941 34.0389 46.0454 32.3549L45.8991 32.5676L45.7529 32.7802C47.9085 34.2626 47.9119 37.2272 46.2003 38.8128L46.3757 39.0021ZM45.8991 32.5676L46.0454 32.3549L43.3784 30.5209L43.2321 30.7336L43.0859 30.9462L45.7529 32.7802L45.8991 32.5676ZM43.2321 30.7336L43.4181 30.9126C44.1769 30.1243 44.6454 29.0527 44.6455 27.8713L44.3874 27.8713L44.1294 27.8713C44.1293 28.9134 43.7166 29.8583 43.0462 30.5546L43.2321 30.7336ZM44.3874 27.8713H44.6455V8.41523H44.3874H44.1294V27.8713H44.3874ZM44.3874 8.41523L44.5831 8.58345C44.8917 8.22441 45.1947 7.95103 45.5241 7.73713L45.3835 7.5207L45.243 7.30427C44.8644 7.55013 44.5254 7.85881 44.1917 8.24701L44.3874 8.41523ZM45.3835 7.5207L45.5241 7.73714C46.4837 7.11402 47.6161 6.81041 48.7587 6.87021L48.7722 6.61249L48.7857 6.35478C47.5342 6.28929 46.294 6.62183 45.243 7.30426L45.3835 7.5207ZM52.7146 16.4162L52.7063 16.1583C52.5287 16.164 52.3611 16.2397 52.2405 16.3693L52.4294 16.5451L52.6183 16.7209C52.6444 16.6929 52.6816 16.6755 52.7229 16.6741L52.7146 16.4162ZM52.4294 16.5451L52.2406 16.3692L51.892 16.7432L52.0808 16.9191L52.2696 17.0951L52.6182 16.7211L52.4294 16.5451ZM52.0808 16.9191L51.8915 16.7437C51.4505 17.2194 50.8773 17.5593 50.2397 17.7218L50.3034 17.9719L50.3672 18.2219C51.0999 18.0352 51.7606 17.644 52.27 17.0946L52.0808 16.9191ZM50.3034 17.9719L50.2397 17.7218C49.6023 17.8842 48.9257 17.8628 48.2902 17.6597L48.2116 17.9055L48.1331 18.1513C48.8595 18.3835 49.6346 18.4085 50.3671 18.2219L50.3034 17.9719ZM48.2116 17.9055L48.2901 17.6596L47.791 17.5004L47.7126 17.7463L47.6342 17.9921L48.1332 18.1513L48.2116 17.9055ZM47.7126 17.7463L47.7916 17.5006C47.6468 17.454 47.4893 17.4572 47.3469 17.5104L47.4372 17.7521L47.5275 17.9939C47.5601 17.9817 47.5981 17.9805 47.6336 17.992L47.7126 17.7463ZM47.4372 17.7521L47.3465 17.5105C47.204 17.564 47.0843 17.6647 47.0079 17.7966L47.2312 17.926L47.4545 18.0554C47.4705 18.0276 47.496 18.0057 47.5279 17.9937L47.4372 17.7521ZM47.2312 17.926L47.0077 17.7969C46.9312 17.9294 46.9036 18.0843 46.9288 18.235L47.1833 18.1926L47.4379 18.1501C47.4322 18.1164 47.4386 18.0829 47.4547 18.055L47.2312 17.926ZM47.1833 18.1926L46.9288 18.2351C46.9537 18.3841 47.0283 18.5221 47.1419 18.625L47.3152 18.4338L47.4884 18.2425C47.4616 18.2182 47.4438 18.1853 47.4378 18.15L47.1833 18.1926ZM47.3152 18.4338L47.1423 18.6254L47.531 18.976L47.7038 18.7844L47.8767 18.5927L47.488 18.2422L47.3152 18.4338ZM47.7038 18.7844L47.5303 18.9754C48.0239 19.4238 48.3806 19.9987 48.559 20.6317L48.8073 20.5617L49.0557 20.4917C48.8508 19.7645 48.4417 19.106 47.8774 18.5934L47.7038 18.7844ZM48.8073 20.5617L48.5589 20.6317C48.7372 21.2646 48.73 21.9297 48.5392 22.5493L48.7859 22.6252L49.0325 22.7011C49.2528 21.9856 49.2606 21.2191 49.0557 20.4917L48.8073 20.5617ZM48.7859 22.6252L48.5391 22.5495L48.3888 23.0397L48.6355 23.1154L48.8822 23.1911L49.0326 22.7009L48.7859 22.6252ZM48.6355 23.1154L48.3885 23.0407C48.3447 23.1854 48.3516 23.3417 48.4091 23.4831L48.6482 23.3859L48.8872 23.2887C48.8743 23.2568 48.8729 23.222 48.8825 23.1902L48.6355 23.1154ZM48.6482 23.3859L48.4092 23.4833C48.4666 23.6243 48.5706 23.7413 48.7008 23.8165L48.8298 23.593L48.9588 23.3695C48.9255 23.3502 48.9003 23.3208 48.8872 23.2886L48.6482 23.3859ZM48.8298 23.593L48.7013 23.8167C48.8319 23.8918 48.9842 23.9218 49.1334 23.9014L49.0984 23.6457L49.0633 23.39C49.0281 23.3949 48.9907 23.3878 48.9583 23.3692L48.8298 23.593ZM49.0984 23.6457L49.1339 23.9013C49.2838 23.8805 49.4237 23.8092 49.5278 23.6982L49.3396 23.5217L49.1513 23.3451C49.1294 23.3685 49.098 23.3852 49.0628 23.3901L49.0984 23.6457ZM49.3396 23.5217L49.5283 23.6976L49.877 23.3236L49.6882 23.1476L49.4994 22.9717L49.1508 23.3457L49.3396 23.5217ZM49.6882 23.1476L49.8775 23.3231C50.3186 22.8472 50.8915 22.5075 51.5293 22.345L51.4655 22.0949L51.4018 21.8448C50.6688 22.0316 50.0084 22.4226 49.4989 22.9722L49.6882 23.1476ZM51.4655 22.0949L51.5292 22.345C52.1671 22.1826 52.844 22.2036 53.4796 22.4071L53.5583 22.1613L53.637 21.9155C52.9102 21.6829 52.1346 21.6583 51.4019 21.8448L51.4655 22.0949ZM53.5583 22.1613L53.4787 22.4068L53.9758 22.5679L54.0554 22.3225L54.135 22.077L53.6379 21.9158L53.5583 22.1613ZM54.0554 22.3225L53.9758 22.5679C54.1217 22.6152 54.2789 22.6113 54.4209 22.5584L54.3308 22.3166L54.2407 22.0748C54.2072 22.0872 54.1696 22.0882 54.135 22.077L54.0554 22.3225ZM54.3308 22.3166L54.4211 22.5583C54.5633 22.5052 54.6841 22.405 54.7611 22.2722L54.5378 22.1428L54.3145 22.0134C54.2988 22.0405 54.2732 22.0626 54.2405 22.0748L54.3308 22.3166ZM54.5378 22.1428L54.7613 22.2717C54.8378 22.1392 54.8656 21.9834 54.8402 21.8324L54.5857 21.8752L54.3312 21.918C54.3368 21.9516 54.3304 21.9858 54.3143 22.0138L54.5378 22.1428ZM54.5857 21.8752L54.8401 21.8322C54.8148 21.6825 54.7393 21.5447 54.6256 21.4423L54.4529 21.634L54.2801 21.8257C54.3074 21.8503 54.3253 21.8834 54.3312 21.9182L54.5857 21.8752ZM54.4529 21.634L54.6262 21.4428L54.2385 21.0912L54.0652 21.2824L53.8918 21.4736L54.2795 21.8251L54.4529 21.634ZM54.0652 21.2824L54.2386 21.0913C53.7445 20.6428 53.3875 20.0676 53.2091 19.4341L52.9607 19.5041L52.7123 19.5741C52.9173 20.3019 53.3268 20.9606 53.8917 21.4735L54.0652 21.2824ZM52.9607 19.5041L53.2091 19.4341C53.0307 18.8007 53.0377 18.1354 53.2288 17.5157L52.9821 17.4396L52.7355 17.3636C52.5148 18.0796 52.5073 18.8463 52.7123 19.5741L52.9607 19.5041ZM52.9821 17.4396L53.2287 17.5159L53.38 17.0267L53.1335 16.9504L52.887 16.8741L52.7356 17.3634L52.9821 17.4396ZM53.1335 16.9504L53.3802 17.0263C53.4173 16.9056 53.4195 16.7755 53.3849 16.6521L53.1364 16.7219L52.888 16.7916C52.8955 16.8186 52.8951 16.8476 52.8869 16.8745L53.1335 16.9504ZM53.1364 16.7219L53.3848 16.6519C53.3502 16.529 53.2809 16.4194 53.1883 16.335L53.0144 16.5256L52.8404 16.7162C52.8642 16.7379 52.8804 16.7648 52.888 16.7918L53.1364 16.7219ZM53.0144 16.5256L52.8319 16.3431L52.8309 16.3441L53.0134 16.5266L53.1959 16.709L53.1969 16.7081L53.0144 16.5256ZM53.0134 16.5266L53.1866 16.3353C53.0558 16.2168 52.8832 16.1528 52.7066 16.1583L52.7146 16.4162L52.7225 16.6741C52.7648 16.6728 52.8077 16.6884 52.8402 16.7179L53.0134 16.5266ZM56.3874 17.2141L56.5018 16.9827C56.4206 16.9425 56.3329 16.9304 56.2462 16.9466C56.1656 16.9616 56.0998 16.9985 56.0507 17.0331C55.96 17.0972 55.871 17.1961 55.8029 17.2688C55.6469 17.4354 55.4933 17.5864 55.2756 17.6485L55.3464 17.8967L55.4172 18.1448C55.7863 18.0395 56.0256 17.7861 56.1796 17.6217C56.2665 17.5289 56.3118 17.4806 56.3485 17.4547C56.3631 17.4444 56.3594 17.4505 56.3408 17.454C56.3161 17.4586 56.2905 17.454 56.273 17.4454L56.3874 17.2141ZM55.3464 17.8967L55.2741 17.6489C55.0607 17.7112 54.865 17.6621 54.6597 17.6C54.5718 17.5733 54.4469 17.5321 54.3377 17.5242C54.2773 17.5199 54.2002 17.5233 54.1218 17.5567C54.0382 17.5923 53.9741 17.6531 53.9306 17.7285L54.154 17.8576L54.3774 17.9868C54.3703 17.9992 54.3525 18.0194 54.3241 18.0315C54.3011 18.0413 54.2884 18.0381 54.3007 18.039C54.3371 18.0416 54.3913 18.058 54.5101 18.0939C54.7181 18.1569 55.0458 18.2532 55.4187 18.1444L55.3464 17.8967ZM54.154 17.8576L53.9304 17.7287C53.8895 17.7997 53.868 17.8796 53.8728 17.9645C53.8774 18.0458 53.9052 18.1146 53.9353 18.1682C53.99 18.2657 54.0796 18.3569 54.1459 18.4256C54.2957 18.5809 54.4499 18.7409 54.5363 18.9803L54.779 18.8928L55.0218 18.8052C54.8934 18.4493 54.6625 18.2177 54.5173 18.0672C54.436 17.9829 54.4006 17.9427 54.3853 17.9155C54.3804 17.9067 54.3869 17.9149 54.3881 17.9354C54.3894 17.9595 54.3822 17.9784 54.3776 17.9865L54.154 17.8576ZM54.779 18.8928L54.5363 18.9803C54.615 19.1988 54.5762 19.3902 54.5261 19.586C54.5048 19.6693 54.4687 19.7951 54.4676 19.9047C54.467 19.9668 54.4764 20.044 54.5167 20.1203C54.5588 20.1999 54.6233 20.2571 54.697 20.295L54.8152 20.0656L54.9333 19.8362C54.9395 19.8394 54.9589 19.8523 54.973 19.879C54.9853 19.9023 54.9837 19.9177 54.9837 19.9098C54.984 19.8793 54.9959 19.8321 55.0262 19.7138C55.0792 19.5066 55.1573 19.1812 55.0218 18.8052L54.779 18.8928ZM54.8152 20.0656L54.697 20.2951C54.857 20.3775 55.011 20.3497 55.1303 20.2898C55.2331 20.2381 55.3274 20.154 55.3991 20.0899C55.5622 19.9443 55.7038 19.8145 55.8971 19.7574L55.8239 19.51L55.7508 19.2625C55.4267 19.3582 55.1995 19.5762 55.0553 19.705C54.9733 19.7782 54.9295 19.8131 54.8985 19.8286C54.884 19.8359 54.9088 19.8236 54.9333 19.8362L54.8152 20.0656ZM55.8239 19.51L55.8963 19.7577C56.0807 19.7038 56.2901 19.7462 56.5365 19.7977C56.6432 19.8201 56.778 19.8485 56.8971 19.8453C57.0279 19.8417 57.2049 19.7959 57.2992 19.6102L57.0691 19.4934L56.839 19.3765C56.8655 19.3242 56.9175 19.3284 56.8829 19.3293C56.8364 19.3306 56.7652 19.3183 56.6421 19.2925C56.4288 19.2479 56.0834 19.1652 55.7515 19.2623L55.8239 19.51ZM57.0691 19.4934L57.2997 19.6091C57.3923 19.4247 57.3269 19.2573 57.2528 19.1495C57.1872 19.0539 57.086 18.9618 57.0093 18.8898C56.834 18.7254 56.6773 18.5693 56.6132 18.355L56.3659 18.4289L56.1187 18.5028C56.2277 18.8676 56.4897 19.1101 56.6562 19.2663C56.7504 19.3546 56.801 19.4032 56.8275 19.4418C56.8456 19.4682 56.813 19.4283 56.8384 19.3776L57.0691 19.4934ZM56.3659 18.4289L56.6133 18.3553C56.5546 18.158 56.5914 17.9629 56.6457 17.7591C56.6696 17.6695 56.7047 17.5522 56.7184 17.4555C56.7315 17.3629 56.7414 17.192 56.6111 17.06L56.4275 17.2414L56.2439 17.4228C56.1938 17.3721 56.216 17.3224 56.2074 17.383C56.1994 17.4394 56.1787 17.5072 56.147 17.6262C56.09 17.84 56.0159 18.1574 56.1186 18.5025L56.3659 18.4289ZM56.4275 17.2414L56.573 17.0283L56.533 17.0009L56.3874 17.2141L56.2419 17.4272L56.2819 17.4545L56.4275 17.2414Z" fill="black" fill-opacity="0.1" mask="url(#path-1-inside-1_512_250)"/>
<mask id="path-3-inside-2_512_250" fill="white">
<path fill-rule="evenodd" clip-rule="evenodd" d="M35.0959 1.54932C36.5494 1.54932 37.6098 1.54951 38.4445 1.61768C39.2729 1.68538 39.8349 1.81726 40.3019 2.05518C41.176 2.50051 41.8869 3.21143 42.3322 4.08545C42.5701 4.55248 42.702 5.11447 42.7697 5.94287C42.8379 6.77752 42.8381 7.8371 42.8381 9.29053V22.7104C42.8381 24.1639 42.8379 25.2235 42.7697 26.0581C42.702 26.8864 42.5701 27.4485 42.3322 27.9155C42.053 28.4633 41.6688 28.946 41.2062 29.3403L40.6603 28.9653L40.8264 22.6108C40.9134 19.248 37.1857 17.242 34.4474 19.0415L34.1857 19.2271L29.5363 22.7925L21.1652 8.29346C21.1683 7.33283 21.1782 6.57371 21.2297 5.94287C21.2973 5.11462 21.4294 4.55243 21.6672 4.08545C22.1124 3.2116 22.8237 2.50054 23.6974 2.05518C24.1644 1.81728 24.7266 1.68539 25.5549 1.61768C26.3895 1.54948 27.4491 1.54932 28.9025 1.54932H35.0959ZM29.2941 7.78662C28.6159 7.78662 28.2759 7.78659 28.0168 7.91846C27.7889 8.03461 27.6037 8.22082 27.4875 8.44873C27.3555 8.7079 27.3547 9.04765 27.3547 9.72607V12.5122C27.3547 13.1907 27.3555 13.5304 27.4875 13.7896C27.6036 14.0175 27.7888 14.2036 28.0168 14.3198C28.2759 14.4517 28.6158 14.4517 29.2941 14.4517H32.9894C33.6678 14.4517 34.0076 14.4517 34.2668 14.3198C34.4947 14.2037 34.6799 14.0175 34.7961 13.7896C34.928 13.5304 34.9289 13.1906 34.9289 12.5122V12.3306L36.3234 13.1274C36.5613 13.2634 36.6809 13.3322 36.7785 13.3218C36.8636 13.3125 36.9411 13.2671 36.9914 13.1978C37.0487 13.1182 37.049 12.9811 37.049 12.7075V9.53076C37.049 9.25661 37.049 9.11906 36.9914 9.03955C36.9411 8.97029 36.8636 8.92573 36.7785 8.9165C36.6809 8.90607 36.5613 8.97394 36.3234 9.10986L34.9289 9.90576V9.72607C34.9289 9.04766 34.9281 8.7079 34.7961 8.44873C34.6799 8.2208 34.4947 8.0346 34.2668 7.91846C34.0076 7.78655 33.6678 7.78662 32.9894 7.78662H29.2941Z"/>
</mask>
<path fill-rule="evenodd" clip-rule="evenodd" d="M35.0959 1.54932C36.5494 1.54932 37.6098 1.54951 38.4445 1.61768C39.2729 1.68538 39.8349 1.81726 40.3019 2.05518C41.176 2.50051 41.8869 3.21143 42.3322 4.08545C42.5701 4.55248 42.702 5.11447 42.7697 5.94287C42.8379 6.77752 42.8381 7.8371 42.8381 9.29053V22.7104C42.8381 24.1639 42.8379 25.2235 42.7697 26.0581C42.702 26.8864 42.5701 27.4485 42.3322 27.9155C42.053 28.4633 41.6688 28.946 41.2062 29.3403L40.6603 28.9653L40.8264 22.6108C40.9134 19.248 37.1857 17.242 34.4474 19.0415L34.1857 19.2271L29.5363 22.7925L21.1652 8.29346C21.1683 7.33283 21.1782 6.57371 21.2297 5.94287C21.2973 5.11462 21.4294 4.55243 21.6672 4.08545C22.1124 3.2116 22.8237 2.50054 23.6974 2.05518C24.1644 1.81728 24.7266 1.68539 25.5549 1.61768C26.3895 1.54948 27.4491 1.54932 28.9025 1.54932H35.0959ZM29.2941 7.78662C28.6159 7.78662 28.2759 7.78659 28.0168 7.91846C27.7889 8.03461 27.6037 8.22082 27.4875 8.44873C27.3555 8.7079 27.3547 9.04765 27.3547 9.72607V12.5122C27.3547 13.1907 27.3555 13.5304 27.4875 13.7896C27.6036 14.0175 27.7888 14.2036 28.0168 14.3198C28.2759 14.4517 28.6158 14.4517 29.2941 14.4517H32.9894C33.6678 14.4517 34.0076 14.4517 34.2668 14.3198C34.4947 14.2037 34.6799 14.0175 34.7961 13.7896C34.928 13.5304 34.9289 13.1906 34.9289 12.5122V12.3306L36.3234 13.1274C36.5613 13.2634 36.6809 13.3322 36.7785 13.3218C36.8636 13.3125 36.9411 13.2671 36.9914 13.1978C37.0487 13.1182 37.049 12.9811 37.049 12.7075V9.53076C37.049 9.25661 37.049 9.11906 36.9914 9.03955C36.9411 8.97029 36.8636 8.92573 36.7785 8.9165C36.6809 8.90607 36.5613 8.97394 36.3234 9.10986L34.9289 9.90576V9.72607C34.9289 9.04766 34.9281 8.7079 34.7961 8.44873C34.6799 8.2208 34.4947 8.0346 34.2668 7.91846C34.0076 7.78655 33.6678 7.78662 32.9894 7.78662H29.2941Z" fill="url(#paint1_linear_512_250)"/>
<path d="M38.4445 1.61768L38.4655 1.36047L38.4655 1.36047L38.4445 1.61768ZM40.3019 2.05518L40.4191 1.82524L40.4191 1.82523L40.3019 2.05518ZM42.3322 4.08545L42.5622 3.96834L42.5622 3.96829L42.3322 4.08545ZM42.7697 5.94287L43.0269 5.92187V5.92186L42.7697 5.94287ZM42.8381 9.29053H43.0961V9.29053H42.8381ZM42.8381 22.7104H43.0961V22.7104H42.8381ZM42.7697 26.0581L43.0269 26.0791L43.0269 26.0791L42.7697 26.0581ZM42.3322 27.9155L42.5621 28.0327L42.5622 28.0327L42.3322 27.9155ZM41.2062 29.3403L41.0601 29.553C41.1563 29.6191 41.2849 29.6124 41.3737 29.5367L41.2062 29.3403ZM40.6603 28.9653L40.4024 28.9586C40.4001 29.046 40.4422 29.1286 40.5142 29.178L40.6603 28.9653ZM40.8264 22.6108L41.0843 22.6176L41.0843 22.6175L40.8264 22.6108ZM34.4474 19.0415L34.3056 18.8257L34.2982 18.831L34.4474 19.0415ZM34.1857 19.2271L34.0364 19.0164L34.0287 19.0223L34.1857 19.2271ZM29.5363 22.7925L29.3128 22.9215C29.35 22.9859 29.4131 23.0311 29.4859 23.0456C29.5588 23.0601 29.6344 23.0425 29.6934 22.9973L29.5363 22.7925ZM21.1652 8.29346L20.9072 8.29262C20.907 8.3382 20.9189 8.38301 20.9417 8.42249L21.1652 8.29346ZM21.2297 5.94287L20.9725 5.92186L20.9725 5.92187L21.2297 5.94287ZM21.6672 4.08545L21.4372 3.96829L21.4372 3.96836L21.6672 4.08545ZM23.6974 2.05518L23.5803 1.82523L23.5803 1.82526L23.6974 2.05518ZM25.5549 1.61768L25.5339 1.36047L25.5338 1.36047L25.5549 1.61768ZM28.9025 1.54932V1.29125V1.29125V1.54932ZM29.2941 7.78662V8.04469V7.78662ZM28.0168 7.91846L27.8997 7.68846L27.8996 7.68853L28.0168 7.91846ZM27.4875 8.44873L27.2576 8.33154L27.2575 8.33161L27.4875 8.44873ZM27.3547 9.72607H27.0966V9.72607H27.3547ZM27.4875 13.7896L27.2575 13.9066L27.2576 13.9067L27.4875 13.7896ZM28.0168 14.3198L27.8996 14.5497L27.8997 14.5498L28.0168 14.3198ZM29.2941 14.4517V14.1936V14.4517ZM32.9894 14.4517V14.1936V14.4517ZM34.2668 14.3198L34.3838 14.5498L34.384 14.5497L34.2668 14.3198ZM34.7961 13.7896L35.026 13.9067L35.0261 13.9066L34.7961 13.7896ZM34.9289 12.3306L35.0569 12.1065C34.9771 12.0609 34.8789 12.0612 34.7994 12.1074C34.7198 12.1535 34.6708 12.2386 34.6708 12.3306H34.9289ZM36.3234 13.1274L36.4515 12.9034V12.9034L36.3234 13.1274ZM36.7785 13.3218L36.8058 13.5784L36.8063 13.5783L36.7785 13.3218ZM36.9914 13.1978L37.2004 13.3492L37.2007 13.3487L36.9914 13.1978ZM37.049 12.7075H37.3071V12.7075H37.049ZM37.049 9.53076H37.3071H37.049ZM36.9914 9.03955L37.2004 8.88814L37.2003 8.88799L36.9914 9.03955ZM36.7785 8.9165L36.8063 8.65994L36.8059 8.6599L36.7785 8.9165ZM36.3234 9.10986L36.4513 9.33399L36.4515 9.33393L36.3234 9.10986ZM34.9289 9.90576H34.6708C34.6708 9.99773 34.7198 10.0827 34.7993 10.1289C34.8788 10.1751 34.9769 10.1755 35.0568 10.1299L34.9289 9.90576ZM34.9289 9.72607H35.187V9.72607H34.9289ZM34.7961 8.44873L35.026 8.33161L35.026 8.33154L34.7961 8.44873ZM34.2668 7.91846L34.3839 7.68852L34.3838 7.68847L34.2668 7.91846ZM32.9894 7.78662V8.04469V7.78662ZM35.0959 1.54932V1.80738C36.5538 1.80738 37.6018 1.80778 38.4235 1.87488L38.4445 1.61768L38.4655 1.36047C37.6179 1.29125 36.5451 1.29125 35.0959 1.29125V1.54932ZM38.4445 1.61768L38.4235 1.87488C39.236 1.94129 39.7602 2.06884 40.1848 2.28512L40.3019 2.05518L40.4191 1.82523C39.9096 1.56568 39.3099 1.42948 38.4655 1.36047L38.4445 1.61768ZM40.3019 2.05518L40.1848 2.28511C41.0102 2.70571 41.6817 3.37715 42.1023 4.20261L42.3322 4.08545L42.5622 3.96829C42.0921 3.04572 41.3417 2.29532 40.4191 1.82524L40.3019 2.05518ZM42.3322 4.08545L42.1023 4.20256C42.3185 4.62716 42.4461 5.15142 42.5125 5.96389L42.7697 5.94287L43.0269 5.92186C42.9579 5.07752 42.8216 4.4778 42.5622 3.96834L42.3322 4.08545ZM42.7697 5.94287L42.5125 5.96388C42.5796 6.78556 42.58 7.83275 42.58 9.29053H42.8381H43.0961C43.0961 7.84144 43.0961 6.76947 43.0269 5.92187L42.7697 5.94287ZM42.8381 9.29053H42.58V22.7104H42.8381H43.0961V9.29053H42.8381ZM42.8381 22.7104H42.58C42.58 24.1682 42.5796 25.2154 42.5125 26.0371L42.7697 26.0581L43.0269 26.0791C43.0962 25.2315 43.0961 24.1595 43.0961 22.7104H42.8381ZM42.7697 26.0581L42.5125 26.0371C42.4461 26.8494 42.3185 27.3739 42.1023 27.7984L42.3322 27.9155L42.5622 28.0327C42.8217 27.5232 42.9579 26.9233 43.0269 26.0791L42.7697 26.0581ZM42.3322 27.9155L42.1023 27.7983C41.8388 28.3153 41.476 28.7713 41.0388 29.1439L41.2062 29.3403L41.3737 29.5367C41.8616 29.1207 42.2673 28.6112 42.5621 28.0327L42.3322 27.9155ZM41.2062 29.3403L41.3524 29.1276L40.8065 28.7526L40.6603 28.9653L40.5142 29.178L41.0601 29.553L41.2062 29.3403ZM40.6603 28.9653L40.9183 28.9721L41.0843 22.6176L40.8264 22.6108L40.5684 22.6041L40.4024 28.9586L40.6603 28.9653ZM40.8264 22.6108L41.0843 22.6175C41.1768 19.0438 37.2159 16.9133 34.3057 18.8258L34.4474 19.0415L34.5892 19.2572C37.1555 17.5706 40.6499 19.4522 40.5684 22.6042L40.8264 22.6108ZM34.4474 19.0415L34.2982 18.831L34.0365 19.0165L34.1857 19.2271L34.335 19.4376L34.5967 19.252L34.4474 19.0415ZM34.1857 19.2271L34.0287 19.0223L29.3793 22.5877L29.5363 22.7925L29.6934 22.9973L34.3428 19.4318L34.1857 19.2271ZM29.5363 22.7925L29.7598 22.6634L21.3887 8.16442L21.1652 8.29346L20.9417 8.42249L29.3128 22.9215L29.5363 22.7925ZM21.1652 8.29346L21.4233 8.29429C21.4264 7.33254 21.4363 6.58316 21.4869 5.96388L21.2297 5.94287L20.9725 5.92187C20.92 6.56426 20.9103 7.33313 20.9072 8.29262L21.1652 8.29346ZM21.2297 5.94287L21.4869 5.96389C21.5533 5.15159 21.681 4.62711 21.8971 4.20254L21.6672 4.08545L21.4372 3.96836C21.1778 4.47775 21.0414 5.07765 20.9725 5.92186L21.2297 5.94287ZM21.6672 4.08545L21.8971 4.20261C22.3176 3.37734 22.9894 2.70574 23.8146 2.2851L23.6974 2.05518L23.5803 1.82526C22.658 2.29535 21.9072 3.04586 21.4372 3.96829L21.6672 4.08545ZM23.6974 2.05518L23.8146 2.28512C24.2391 2.06886 24.7635 1.9413 25.5759 1.87488L25.5549 1.61768L25.5338 1.36047C24.6897 1.42948 24.0898 1.5657 23.5803 1.82523L23.6974 2.05518ZM25.5549 1.61768L25.5759 1.87488C26.3975 1.80775 27.4448 1.80738 28.9025 1.80738V1.54932V1.29125C27.4535 1.29125 26.3814 1.29122 25.5339 1.36047L25.5549 1.61768ZM28.9025 1.54932V1.80738H35.0959V1.54932V1.29125H28.9025V1.54932ZM29.2941 7.78662V7.52856C28.9593 7.52856 28.6924 7.52835 28.4773 7.54588C28.2593 7.56365 28.0718 7.60092 27.8997 7.68846L28.0168 7.91846L28.1338 8.14846C28.2209 8.10413 28.333 8.07548 28.5193 8.0603C28.7085 8.04488 28.9508 8.04469 29.2941 8.04469V7.78662ZM28.0168 7.91846L27.8996 7.68853C27.6227 7.82965 27.3982 8.05555 27.2576 8.33154L27.4875 8.44873L27.7174 8.56592C27.8091 8.3861 27.955 8.23957 28.134 8.14839L28.0168 7.91846ZM27.4875 8.44873L27.2575 8.33161C27.17 8.50347 27.1324 8.69079 27.1144 8.90893C27.0966 9.12411 27.0966 9.39095 27.0966 9.72607H27.3547H27.6127C27.6127 9.38277 27.6131 9.14053 27.6288 8.95143C27.6441 8.7653 27.673 8.65316 27.7174 8.56586L27.4875 8.44873ZM27.3547 9.72607H27.0966V12.5122H27.3547H27.6127V9.72607H27.3547ZM27.3547 12.5122H27.0966C27.0966 12.8474 27.0966 13.1142 27.1144 13.3294C27.1324 13.5475 27.17 13.7348 27.2575 13.9066L27.4875 13.7896L27.7175 13.6725C27.673 13.5851 27.6442 13.473 27.6288 13.2869C27.6132 13.0978 27.6127 12.8555 27.6127 12.5122H27.3547ZM27.4875 13.7896L27.2576 13.9067C27.3982 14.1828 27.6227 14.4086 27.8996 14.5497L28.0168 14.3198L28.134 14.0899C27.955 13.9987 27.8091 13.8522 27.7174 13.6724L27.4875 13.7896ZM28.0168 14.3198L27.8997 14.5498C28.0718 14.6374 28.2593 14.6747 28.4773 14.6924C28.6924 14.7099 28.9592 14.7097 29.2941 14.7097V14.4517V14.1936C28.9507 14.1936 28.7085 14.1934 28.5192 14.178C28.333 14.1628 28.221 14.1342 28.1338 14.0898L28.0168 14.3198ZM29.2941 14.4517V14.7097H32.9894V14.4517V14.1936H29.2941V14.4517ZM32.9894 14.4517V14.7097C33.3243 14.7097 33.5912 14.7099 33.8063 14.6924C34.0243 14.6747 34.2118 14.6374 34.3838 14.5498L34.2668 14.3198L34.1497 14.0898C34.0626 14.1342 33.9506 14.1628 33.7643 14.178C33.5751 14.1934 33.3329 14.1936 32.9894 14.1936V14.4517ZM34.2668 14.3198L34.384 14.5497C34.6609 14.4086 34.8853 14.1828 35.026 13.9067L34.7961 13.7896L34.5661 13.6724C34.4745 13.8522 34.3286 13.9987 34.1496 14.0899L34.2668 14.3198ZM34.7961 13.7896L35.0261 13.9066C35.1135 13.7348 35.1511 13.5475 35.1692 13.3294C35.1869 13.1142 35.187 12.8473 35.187 12.5122H34.9289H34.6708C34.6708 12.8555 34.6704 13.0977 34.6548 13.2868C34.6394 13.473 34.6106 13.5851 34.5661 13.6725L34.7961 13.7896ZM34.9289 12.5122H35.187V12.3306H34.9289H34.6708V12.5122H34.9289ZM34.9289 12.3306L34.8009 12.5546L36.1954 13.3515L36.3234 13.1274L36.4515 12.9034L35.0569 12.1065L34.9289 12.3306ZM36.3234 13.1274L36.1954 13.3515C36.3098 13.4169 36.4112 13.4752 36.4961 13.5141C36.5797 13.5524 36.6863 13.5911 36.8058 13.5784L36.7785 13.3218L36.7512 13.0652C36.7731 13.0628 36.7711 13.0724 36.711 13.0448C36.6523 13.018 36.5749 12.9739 36.4515 12.9034L36.3234 13.1274ZM36.7785 13.3218L36.8063 13.5783C36.9649 13.5611 37.1078 13.4769 37.2004 13.3492L36.9914 13.1978L36.7824 13.0463C36.7745 13.0573 36.7624 13.0639 36.7507 13.0652L36.7785 13.3218ZM36.9914 13.1978L37.2007 13.3487C37.2706 13.2518 37.2902 13.1409 37.2987 13.0491C37.3073 12.9561 37.3071 12.8394 37.3071 12.7075H37.049H36.7909C36.7909 12.8493 36.7906 12.9379 36.7847 13.0017C36.7787 13.0668 36.7696 13.0642 36.7821 13.0468L36.9914 13.1978ZM37.049 12.7075H37.3071V9.53076H37.049H36.7909V12.7075H37.049ZM37.049 9.53076H37.3071C37.3071 9.39875 37.3073 9.28178 37.2988 9.18861C37.2904 9.09682 37.2708 8.98534 37.2004 8.88814L36.9914 9.03955L36.7824 9.19096C36.7696 9.17327 36.7788 9.17032 36.7848 9.23572C36.7907 9.29974 36.7909 9.38862 36.7909 9.53076H37.049ZM36.9914 9.03955L37.2003 8.88799C37.1067 8.75908 36.9631 8.67693 36.8063 8.65994L36.7785 8.9165L36.7507 9.17307C36.7641 9.17452 36.7756 9.1815 36.7825 9.19111L36.9914 9.03955ZM36.7785 8.9165L36.8059 8.6599C36.687 8.64719 36.5808 8.68518 36.4968 8.72337C36.4115 8.76212 36.3101 8.82024 36.1954 8.8858L36.3234 9.10986L36.4515 9.33393C36.5746 9.26356 36.6519 9.21979 36.7104 9.19324C36.77 9.16611 36.7724 9.17539 36.7511 9.17311L36.7785 8.9165ZM36.3234 9.10986L36.1955 8.88573L34.801 9.68163L34.9289 9.90576L35.0568 10.1299L36.4513 9.33399L36.3234 9.10986ZM34.9289 9.90576H35.187V9.72607H34.9289H34.6708V9.90576H34.9289ZM34.9289 9.72607H35.187C35.187 9.39096 35.187 9.12411 35.1692 8.90893C35.1512 8.6908 35.1136 8.50347 35.026 8.33161L34.7961 8.44873L34.5661 8.56585C34.6106 8.65316 34.6394 8.7653 34.6548 8.95144C34.6704 9.14054 34.6708 9.38278 34.6708 9.72607H34.9289ZM34.7961 8.44873L35.026 8.33154C34.8853 8.05554 34.6609 7.82964 34.3839 7.68852L34.2668 7.91846L34.1496 8.14839C34.3286 8.23956 34.4745 8.38606 34.5662 8.56592L34.7961 8.44873ZM34.2668 7.91846L34.3838 7.68847C34.2118 7.6009 34.0243 7.56362 33.8063 7.54586C33.5912 7.52834 33.3243 7.52856 32.9894 7.52856V7.78662V8.04469C33.3329 8.04469 33.5751 8.04487 33.7643 8.06029C33.9506 8.07546 34.0626 8.10411 34.1497 8.14844L34.2668 7.91846ZM32.9894 7.78662V7.52856H29.2941V7.78662V8.04469H32.9894V7.78662Z" fill="black" fill-opacity="0.1" mask="url(#path-3-inside-2_512_250)"/>
<mask id="path-5-inside-3_512_250" fill="white">
<path fill-rule="evenodd" clip-rule="evenodd" d="M15.0383 7.43574C16.2354 7.37305 17.4226 7.69118 18.4279 8.34395C18.9712 8.69688 19.4547 9.214 20.0256 10.0393C20.6002 10.87 21.2393 11.9764 22.1106 13.4855L27.1682 22.2453C27.179 22.264 27.1897 22.2834 27.2004 22.302L23.3322 20.9338C20.0587 19.7758 16.9045 22.9307 18.0627 26.2043L20.1828 32.1955L16.3147 37.2404C15.8611 37.8318 15.5982 38.4795 15.4992 39.1311C15.4886 39.1317 15.4776 39.1334 15.467 39.134C14.27 39.1966 13.0827 38.8786 12.0774 38.2258C11.534 37.8728 11.0507 37.355 10.4797 36.5295C9.9051 35.6987 9.26603 34.5923 8.39475 33.0832L3.33713 24.3234C2.46607 22.8147 1.82785 21.709 1.39572 20.7961C0.966305 19.8888 0.759755 19.2108 0.725802 18.5637C0.66318 17.3666 0.98112 16.1794 1.63401 15.174C1.98702 14.6305 2.50459 14.1475 3.33029 13.5764C4.16112 13.0017 5.26636 12.3628 6.77561 11.4914L9.27854 10.0471C10.7876 9.17581 11.8929 8.53688 12.8059 8.10469C13.7133 7.67524 14.3912 7.46972 15.0383 7.43574ZM14.552 13.8147C14.1809 13.8343 13.8045 14.0512 13.0539 14.4846L9.74631 16.3947C8.99605 16.8279 8.62069 17.0452 8.41818 17.3566C8.24023 17.6307 8.1532 17.9552 8.17014 18.2814C8.18971 18.6524 8.40697 19.0284 8.84006 19.7785L10.2336 22.1926C10.6668 22.9429 10.8842 23.3191 11.1955 23.5217C11.4696 23.6997 11.794 23.7858 12.1203 23.7688C12.4914 23.7492 12.8668 23.5322 13.6174 23.0988L16.925 21.1897C17.6758 20.7562 18.0516 20.5394 18.2541 20.2277C18.4321 19.9536 18.5193 19.6294 18.5022 19.3029C18.4824 18.9321 18.2653 18.556 17.8322 17.8059L16.4387 15.3918C16.0055 14.6415 15.7883 14.2651 15.4768 14.0627C15.2027 13.8849 14.8782 13.7976 14.552 13.8147Z"/>
</mask>
<path fill-rule="evenodd" clip-rule="evenodd" d="M15.0383 7.43574C16.2354 7.37305 17.4226 7.69118 18.4279 8.34395C18.9712 8.69688 19.4547 9.214 20.0256 10.0393C20.6002 10.87 21.2393 11.9764 22.1106 13.4855L27.1682 22.2453C27.179 22.264 27.1897 22.2834 27.2004 22.302L23.3322 20.9338C20.0587 19.7758 16.9045 22.9307 18.0627 26.2043L20.1828 32.1955L16.3147 37.2404C15.8611 37.8318 15.5982 38.4795 15.4992 39.1311C15.4886 39.1317 15.4776 39.1334 15.467 39.134C14.27 39.1966 13.0827 38.8786 12.0774 38.2258C11.534 37.8728 11.0507 37.355 10.4797 36.5295C9.9051 35.6987 9.26603 34.5923 8.39475 33.0832L3.33713 24.3234C2.46607 22.8147 1.82785 21.709 1.39572 20.7961C0.966305 19.8888 0.759755 19.2108 0.725802 18.5637C0.66318 17.3666 0.98112 16.1794 1.63401 15.174C1.98702 14.6305 2.50459 14.1475 3.33029 13.5764C4.16112 13.0017 5.26636 12.3628 6.77561 11.4914L9.27854 10.0471C10.7876 9.17581 11.8929 8.53688 12.8059 8.10469C13.7133 7.67524 14.3912 7.46972 15.0383 7.43574ZM14.552 13.8147C14.1809 13.8343 13.8045 14.0512 13.0539 14.4846L9.74631 16.3947C8.99605 16.8279 8.62069 17.0452 8.41818 17.3566C8.24023 17.6307 8.1532 17.9552 8.17014 18.2814C8.18971 18.6524 8.40697 19.0284 8.84006 19.7785L10.2336 22.1926C10.6668 22.9429 10.8842 23.3191 11.1955 23.5217C11.4696 23.6997 11.794 23.7858 12.1203 23.7688C12.4914 23.7492 12.8668 23.5322 13.6174 23.0988L16.925 21.1897C17.6758 20.7562 18.0516 20.5394 18.2541 20.2277C18.4321 19.9536 18.5193 19.6294 18.5022 19.3029C18.4824 18.9321 18.2653 18.556 17.8322 17.8059L16.4387 15.3918C16.0055 14.6415 15.7883 14.2651 15.4768 14.0627C15.2027 13.8849 14.8782 13.7976 14.552 13.8147Z" fill="url(#paint2_linear_512_250)"/>
<path d="M15.0383 7.43574L15.0248 7.17803L15.0248 7.17804L15.0383 7.43574ZM18.4279 8.34395L18.5685 8.12754L18.5685 8.1275L18.4279 8.34395ZM20.0256 10.0393L20.2378 9.89246L20.2378 9.89245L20.0256 10.0393ZM22.1106 13.4855L21.8871 13.6146L21.8871 13.6146L22.1106 13.4855ZM27.1682 22.2453L27.3917 22.1163L27.3917 22.1163L27.1682 22.2453ZM27.2004 22.302L27.1144 22.5452C27.2162 22.5813 27.3297 22.55 27.3988 22.467C27.4679 22.3839 27.4779 22.2666 27.4239 22.173L27.2004 22.302ZM23.3322 20.9338L23.2462 21.1771L23.2462 21.1771L23.3322 20.9338ZM18.0627 26.2043L17.8194 26.2904L17.8194 26.2904L18.0627 26.2043ZM20.1828 32.1955L20.3876 32.3525C20.4408 32.2832 20.4552 32.1917 20.4261 32.1094L20.1828 32.1955ZM16.3147 37.2404L16.5194 37.3975L16.5195 37.3975L16.3147 37.2404ZM15.4992 39.1311L15.5156 39.3886C15.6367 39.3809 15.7362 39.2898 15.7544 39.1698L15.4992 39.1311ZM15.467 39.134L15.4805 39.3917L15.4805 39.3917L15.467 39.134ZM12.0774 38.2258L11.9368 38.4422L11.9368 38.4422L12.0774 38.2258ZM10.4797 36.5295L10.2675 36.6763L10.2675 36.6763L10.4797 36.5295ZM8.39475 33.0832L8.61824 32.9542L8.61824 32.9542L8.39475 33.0832ZM3.33713 24.3234L3.11364 24.4525L3.11364 24.4525L3.33713 24.3234ZM1.39572 20.7961L1.16246 20.9065L1.16247 20.9065L1.39572 20.7961ZM0.725802 18.5637L0.46809 18.5772L0.468092 18.5772L0.725802 18.5637ZM1.63401 15.174L1.41759 15.0335L1.41757 15.0335L1.63401 15.174ZM3.33029 13.5764L3.18349 13.3641L3.18349 13.3641L3.33029 13.5764ZM6.77561 11.4914L6.64662 11.2679L6.64657 11.2679L6.77561 11.4914ZM9.27854 10.0471L9.40752 10.2706L9.40757 10.2706L9.27854 10.0471ZM12.8059 8.10469L12.6955 7.87143L12.6955 7.87144L12.8059 8.10469ZM14.552 13.8147L14.5385 13.5569L14.5383 13.5569L14.552 13.8147ZM13.0539 14.4846L12.9249 14.2611L12.9249 14.2611L13.0539 14.4846ZM9.74631 16.3947L9.87534 16.6182L9.87537 16.6182L9.74631 16.3947ZM8.41818 17.3566L8.20184 17.216L8.20175 17.2161L8.41818 17.3566ZM8.17014 18.2814L7.91242 18.2948L7.91243 18.295L8.17014 18.2814ZM8.84006 19.7785L9.06356 19.6495L9.06355 19.6495L8.84006 19.7785ZM10.2336 22.1926L10.0101 22.3216L10.0101 22.3216L10.2336 22.1926ZM11.1955 23.5217L11.0548 23.738L11.055 23.7381L11.1955 23.5217ZM12.1203 23.7688L12.1338 24.0265L12.1339 24.0265L12.1203 23.7688ZM13.6174 23.0988L13.4884 22.8753L13.4884 22.8753L13.6174 23.0988ZM16.925 21.1897L17.054 21.4132L17.0541 21.4131L16.925 21.1897ZM18.2541 20.2277L18.4705 20.3684L18.4706 20.3682L18.2541 20.2277ZM18.5022 19.3029L18.7599 19.2894L18.7599 19.2892L18.5022 19.3029ZM17.8322 17.8059L17.6087 17.9349L17.6088 17.9349L17.8322 17.8059ZM16.4387 15.3918L16.6622 15.2628L16.6622 15.2628L16.4387 15.3918ZM15.4768 14.0627L15.6174 13.8463L15.6172 13.8462L15.4768 14.0627ZM15.0383 7.43574L15.0518 7.69346C16.1944 7.63361 17.3277 7.93729 18.2874 8.56039L18.4279 8.34395L18.5685 8.1275C17.5174 7.44507 16.2763 7.11249 15.0248 7.17803L15.0383 7.43574ZM18.4279 8.34395L18.2874 8.56036C18.7907 8.88735 19.2516 9.37397 19.8134 10.1861L20.0256 10.0393L20.2378 9.89245C19.6579 9.05403 19.1517 8.50642 18.5685 8.12754L18.4279 8.34395ZM20.0256 10.0393L19.8134 10.1861C20.3806 11.0061 21.0136 12.1017 21.8871 13.6146L22.1106 13.4855L22.3341 13.3565C21.4649 11.8511 20.8199 10.7339 20.2378 9.89246L20.0256 10.0393ZM22.1106 13.4855L21.8871 13.6146L26.9447 22.3744L27.1682 22.2453L27.3917 22.1163L22.3341 13.3565L22.1106 13.4855ZM27.1682 22.2453L26.9447 22.3743C26.9494 22.3825 26.9542 22.391 26.9596 22.4006C26.9649 22.4099 26.9708 22.4204 26.9769 22.4309L27.2004 22.302L27.4239 22.173C27.4193 22.1649 27.4145 22.1564 27.409 22.1467C27.4037 22.1374 27.3978 22.1269 27.3917 22.1163L27.1682 22.2453ZM27.2004 22.302L27.2865 22.0587L23.4183 20.6905L23.3322 20.9338L23.2462 21.1771L27.1144 22.5452L27.2004 22.302ZM23.3322 20.9338L23.4183 20.6905C19.9401 19.4601 16.5888 22.8123 17.8194 26.2904L18.0627 26.2043L18.306 26.1182C17.2201 23.0492 20.1773 20.0914 23.2462 21.1771L23.3322 20.9338ZM18.0627 26.2043L17.8194 26.2904L19.9396 32.2816L20.1828 32.1955L20.4261 32.1094L18.306 26.1182L18.0627 26.2043ZM20.1828 32.1955L19.978 32.0385L16.1099 37.0834L16.3147 37.2404L16.5195 37.3975L20.3876 32.3525L20.1828 32.1955ZM16.3147 37.2404L16.1099 37.0834C15.6297 37.7095 15.3495 38.398 15.2441 39.0923L15.4992 39.1311L15.7544 39.1698C15.8468 38.561 16.0926 37.9541 16.5194 37.3975L16.3147 37.2404ZM15.4992 39.1311L15.4829 38.8735C15.4764 38.8739 15.4706 38.8744 15.4661 38.8749C15.462 38.8753 15.4578 38.8757 15.4557 38.876C15.4496 38.8766 15.4508 38.8764 15.4535 38.8763L15.467 39.134L15.4805 39.3917C15.4938 39.391 15.5058 39.3897 15.5106 39.3892C15.5177 39.3884 15.517 39.3885 15.5156 39.3886L15.4992 39.1311ZM15.467 39.134L15.4535 38.8763C14.3109 38.9361 13.1775 38.6325 12.2179 38.0093L12.0774 38.2258L11.9368 38.4422C12.9879 39.1247 14.229 39.4572 15.4805 39.3917L15.467 39.134ZM12.0774 38.2258L12.218 38.0094C11.7146 37.6824 11.2539 37.1952 10.6919 36.3827L10.4797 36.5295L10.2675 36.6763C10.8475 37.5148 11.3534 38.0632 11.9368 38.4422L12.0774 38.2258ZM10.4797 36.5295L10.692 36.3827C10.1247 35.5626 9.49168 34.467 8.61824 32.9542L8.39475 33.0832L8.17126 33.2122C9.04038 34.7176 9.68545 35.8348 10.2675 36.6763L10.4797 36.5295ZM8.39475 33.0832L8.61824 32.9542L3.56062 24.1944L3.33713 24.3234L3.11364 24.4525L8.17126 33.2122L8.39475 33.0832ZM3.33713 24.3234L3.56062 24.1944C2.6874 22.6819 2.05554 21.5868 1.62898 20.6857L1.39572 20.7961L1.16247 20.9065C1.60016 21.8311 2.24475 22.9475 3.11364 24.4525L3.33713 24.3234ZM1.39572 20.7961L1.62898 20.6857C1.20638 19.7928 1.01497 19.1497 0.983512 18.5502L0.725802 18.5637L0.468092 18.5772C0.504543 19.2719 0.726234 19.9848 1.16246 20.9065L1.39572 20.7961ZM0.725802 18.5637L0.983514 18.5502C0.923737 17.4075 1.22725 16.2742 1.85044 15.3146L1.63401 15.174L1.41757 15.0335C0.734994 16.0846 0.402623 17.3257 0.46809 18.5772L0.725802 18.5637ZM1.63401 15.174L1.85042 15.3146C2.17744 14.8111 2.6644 14.3507 3.4771 13.7886L3.33029 13.5764L3.18349 13.3641C2.34478 13.9443 1.79661 14.4499 1.41759 15.0335L1.63401 15.174ZM3.33029 13.5764L3.4771 13.7886C4.29725 13.2213 5.39174 12.5884 6.90464 11.7149L6.77561 11.4914L6.64657 11.2679C5.14099 12.1372 4.025 12.7821 3.18349 13.3641L3.33029 13.5764ZM6.77561 11.4914L6.90459 11.7149L9.40752 10.2706L9.27854 10.0471L9.14955 9.82355L6.64662 11.2679L6.77561 11.4914ZM9.27854 10.0471L9.40757 10.2706C10.9206 9.39704 12.0151 8.76455 12.9163 8.33794L12.8059 8.10469L12.6955 7.87144C11.7707 8.30921 10.6547 8.95458 9.1495 9.82358L9.27854 10.0471ZM12.8059 8.10469L12.9163 8.33795C13.809 7.91542 14.4521 7.72494 15.0518 7.69345L15.0383 7.43574L15.0248 7.17804C14.3302 7.2145 13.6175 7.43505 12.6955 7.87143L12.8059 8.10469ZM14.552 13.8147L14.5383 13.5569C14.3053 13.5693 14.0836 13.6435 13.8349 13.7612C13.5889 13.8776 13.2966 14.0465 12.9249 14.2611L13.0539 14.4846L13.183 14.7081C13.5619 14.4893 13.8331 14.333 14.0557 14.2277C14.2755 14.1237 14.4276 14.0797 14.5656 14.0724L14.552 13.8147ZM13.0539 14.4846L12.9249 14.2611L9.61725 16.1713L9.74631 16.3947L9.87537 16.6182L13.183 14.708L13.0539 14.4846ZM9.74631 16.3947L9.61728 16.1712C9.24575 16.3857 8.9536 16.5543 8.72995 16.7092C8.50386 16.8657 8.32898 17.0204 8.20184 17.216L8.41818 17.3566L8.63453 17.4973C8.70989 17.3814 8.82395 17.2718 9.02372 17.1335C9.22595 16.9935 9.49661 16.8369 9.87534 16.6182L9.74631 16.3947ZM8.41818 17.3566L8.20175 17.2161C7.99414 17.5358 7.89266 17.9142 7.91242 18.2948L8.17014 18.2814L8.42786 18.2681C8.41374 17.9962 8.48632 17.7256 8.63462 17.4972L8.41818 17.3566ZM8.17014 18.2814L7.91243 18.295C7.92473 18.5281 7.99909 18.7497 8.1168 18.9983C8.23324 19.2441 8.40216 19.5362 8.61657 19.9076L8.84006 19.7785L9.06355 19.6495C8.84487 19.2707 8.68861 18.9997 8.58325 18.7773C8.47917 18.5576 8.43512 18.4057 8.42784 18.2679L8.17014 18.2814ZM8.84006 19.7785L8.61656 19.9075L10.0101 22.3216L10.2336 22.1926L10.4571 22.0636L9.06356 19.6495L8.84006 19.7785ZM10.2336 22.1926L10.0101 22.3216C10.2246 22.6931 10.3932 22.9855 10.548 23.2093C10.7045 23.4356 10.8592 23.6108 11.0548 23.738L11.1955 23.5217L11.3363 23.3054C11.2205 23.23 11.1109 23.1158 10.9725 22.9158C10.8325 22.7133 10.6758 22.4424 10.4571 22.0635L10.2336 22.1926ZM11.1955 23.5217L11.055 23.7381C11.3751 23.946 11.7535 24.0463 12.1338 24.0265L12.1203 23.7688L12.1069 23.511C11.8345 23.5252 11.5641 23.4533 11.3361 23.3052L11.1955 23.5217ZM12.1203 23.7688L12.1339 24.0265C12.3671 24.0141 12.5885 23.9399 12.837 23.8222C13.0828 23.7058 13.3748 23.5369 13.7464 23.3223L13.6174 23.0988L13.4884 22.8753C13.1093 23.0942 12.8384 23.2504 12.6161 23.3557C12.3964 23.4598 12.2447 23.5038 12.1067 23.511L12.1203 23.7688ZM13.6174 23.0988L13.7464 23.3223L17.054 21.4132L16.925 21.1897L16.796 20.9661L13.4884 22.8753L13.6174 23.0988ZM16.925 21.1897L17.0541 21.4131C17.4257 21.1985 17.7182 21.03 17.9419 20.8753C18.1682 20.7189 18.3433 20.5641 18.4705 20.3684L18.2541 20.2277L18.0377 20.0871C17.9624 20.203 17.8484 20.3125 17.6484 20.4507C17.446 20.5907 17.1751 20.7473 16.796 20.9662L16.925 21.1897ZM18.2541 20.2277L18.4706 20.3682C18.6781 20.0485 18.7798 19.6705 18.7599 19.2894L18.5022 19.3029L18.2445 19.3164C18.2587 19.5883 18.1861 19.8586 18.0377 20.0872L18.2541 20.2277ZM18.5022 19.3029L18.7599 19.2892C18.7475 19.0562 18.6731 18.8347 18.5554 18.5862C18.439 18.3403 18.2702 18.0482 18.0557 17.6768L17.8322 17.8059L17.6088 17.9349C17.8274 18.3136 17.9836 18.5846 18.089 18.8071C18.193 19.0268 18.2371 19.1788 18.2445 19.3167L18.5022 19.3029ZM17.8322 17.8059L18.0557 17.6768L16.6622 15.2628L16.4387 15.3918L16.2152 15.5208L17.6087 17.9349L17.8322 17.8059ZM16.4387 15.3918L16.6622 15.2628C16.4477 14.8913 16.2791 14.5989 16.1244 14.375C15.9679 14.1488 15.8131 13.9735 15.6174 13.8463L15.4768 14.0627L15.3362 14.2791C15.4519 14.3543 15.5615 14.4685 15.6998 14.6686C15.8399 14.8711 15.9965 15.142 16.2152 15.5208L16.4387 15.3918ZM15.4768 14.0627L15.6172 13.8462C15.2977 13.6389 14.9194 13.537 14.5385 13.5569L14.552 13.8147L14.5655 14.0724C14.8371 14.0581 15.1077 14.1309 15.3363 14.2792L15.4768 14.0627Z" fill="black" fill-opacity="0.1" mask="url(#path-5-inside-3_512_250)"/>
<path d="M36.6788 39.7756L35.9489 39.0457L35.9488 39.0458L36.6788 39.7756ZM55.2969 54.7434L56.0269 54.0135L56.0269 54.0135L55.2969 54.7434ZM55.2969 58.3938L56.0268 59.1238L56.0269 59.1237L55.2969 58.3938ZM51.6465 58.3938L50.9166 59.1237L50.9167 59.1238L51.6465 58.3938ZM36.6788 39.7756L37.4087 40.5056C38.0134 39.9009 38.9946 39.9009 39.5992 40.5056L40.3292 39.7756L41.0591 39.0457C39.6482 37.6348 37.3598 37.6348 35.9489 39.0457L36.6788 39.7756ZM40.3292 39.7756L39.5992 40.5056L54.567 55.4733L55.2969 54.7434L56.0269 54.0135L41.0591 39.0457L40.3292 39.7756ZM55.2969 54.7434L54.567 55.4733C55.1716 56.078 55.1716 57.0593 54.567 57.6639L55.2969 58.3938L56.0269 59.1237C57.4378 57.7128 57.4376 55.4244 56.0269 54.0135L55.2969 54.7434ZM55.2969 58.3938L54.5671 57.6638C53.9624 58.2684 52.981 58.2684 52.3764 57.6638L51.6465 58.3938L50.9167 59.1238C52.3276 60.5344 54.6159 60.5344 56.0268 59.1238L55.2969 58.3938ZM51.6465 58.3938L52.3765 57.6639L37.4087 42.6961L36.6788 43.426L35.9489 44.1559L50.9166 59.1237L51.6465 58.3938ZM36.6788 43.426L37.4087 42.6961C36.8041 42.0916 36.8041 41.1103 37.4088 40.5055L36.6788 39.7756L35.9488 39.0458C34.5382 40.4566 34.5379 42.745 35.9489 44.1559L36.6788 43.426Z" fill="black"/>
<path d="M20.7979 25.2122C20.5082 24.3937 21.2969 23.605 22.1154 23.8947L29.1645 26.3897C29.494 26.5062 29.86 26.4483 30.1372 26.2356L36.0704 21.6845C36.7593 21.156 37.7531 21.6624 37.7305 22.5304L37.536 30.0055C37.5269 30.3548 37.6952 30.685 37.9831 30.8829L44.1449 35.1193C44.8604 35.6112 44.6859 36.7129 43.8535 36.9596L36.6841 39.0846C36.3491 39.1839 36.087 39.4459 35.9877 39.7809L33.8628 46.9503C33.6161 47.7827 32.5144 47.9572 32.0225 47.2418L27.7861 41.0799C27.5881 40.792 27.258 40.6238 26.9086 40.6329L19.4335 40.8274C18.5656 40.85 18.0592 39.8561 18.5876 39.1672L23.1388 33.2341C23.3514 32.9568 23.4094 32.5908 23.2928 32.2614L20.7979 25.2122Z" stroke="black" stroke-width="2.06452" stroke-linecap="round" stroke-linejoin="round"/>
<circle cx="32.6943" cy="9.79401" r="0.683899" fill="#42C978"/>
<circle cx="14.2466" cy="16.193" r="0.701935" transform="rotate(-30 14.2466 16.193)" fill="#E45FF1"/>
<path d="M14.9538 19.3082L12.5355 18.5562C12.3075 18.4853 12.0673 18.6231 12.0135 18.8557L11.4396 21.3353C11.3586 21.6851 11.734 21.9631 12.045 21.7835L15.0372 20.056C15.3473 19.8769 15.2957 19.4145 14.9538 19.3082Z" fill="#E45FF1"/>
<defs>
<linearGradient id="paint0_linear_512_250" x1="55.1957" y1="10.7206" x2="43.1393" y2="39.4516" gradientUnits="userSpaceOnUse">
<stop stop-color="#3C87FF"/>
<stop offset="1" stop-color="#4EF6FF"/>
</linearGradient>
<linearGradient id="paint1_linear_512_250" x1="32.0016" y1="1.54932" x2="32.0016" y2="29.3403" gradientUnits="userSpaceOnUse">
<stop stop-color="#42C978"/>
<stop offset="1" stop-color="#E4F250"/>
</linearGradient>
<linearGradient id="paint2_linear_512_250" x1="6.50628" y1="13.072" x2="19.1079" y2="34.7004" gradientUnits="userSpaceOnUse">
<stop stop-color="#DC51FF"/>
<stop offset="1" stop-color="#FF8EBF"/>
</linearGradient>
</defs>
</svg>
